<svg xmlns="http://www.w3.org/2000/svg" version="1.1" style="display: block; height: 100%; width: 100%;" viewBox="175.5280303955078 103.98092269897461 1703.4619598388672 1703.4619598388672">
<defs>
	<linearGradient id="Gradient1" gradientUnits="userSpaceOnUse" x1="1021.14" y1="890.342" x2="1051.81" y2="924.6">
		<stop class="stop0" offset="0" stop-opacity="1" stop-color="rgb(84,114,156)"/>
		<stop class="stop1" offset="1" stop-opacity="1" stop-color="rgb(111,143,179)"/>
	</linearGradient>
</defs>

<path transform="translate(0,0)" fill="rgb(3,33,69)" d="M1021.51,117.451c19.93,-0.646 44.57,0.366 64.38,1.815c171.76,11.173 331.63,91.588 443,222.83c123.5,145.469 185.15,333.502 171.75,523.852c-12.74,169.272 -92.21,346.412 -221.99,457.942l-447.9,-0.02l-455.913,0.03c-5.98,-5.45 -11.909,-10.95 -17.785,-16.52c-131.07,-123.54 -202.651,-299.98 -207.739,-478.906c-3.749,-187.338 66.775,-368.55 196.171,-504.071c125.697,-133.043 294.278,-201.637 476.026,-206.952zM1096.85,1310.97c6.45,0.08 49.42,0.84 53.48,-0.44l0.05,-1.09c0.23,-4.88 -7.67,-5.49 -8.19,-6.5c-3.35,-6.46 3.74,-27.84 -7.11,-28.59c-3.86,3.72 -2.79,22.77 -2.82,29.1l-15.26,0.27l-0.03,-29.24c-6.15,-1.21 -8.61,-2.68 -13.59,0.44c-3.46,6 -1.33,23.05 -1.32,32.12l-8.84,1.35c-5.29,0.69 -10.42,1.28 -15.65,2.42c6.33,0.11 13,0.35 19.28,0.16zM1042.47,1310.63c3.05,0.39 4.23,0.54 7.39,0.54c0.11,-9.97 0.74,-28.44 -0.29,-37.6c-2.38,-2.13 -4.38,-1.6 -8.26,-1.7c-0.1,6.23 -1.43,35.82 1.16,38.76zM913.994,1303.07l-17.75,-0.06c-0.012,-7.78 0.507,-21.9 -1.033,-28.76c-2.398,-1.15 -2.562,-0.78 -5.284,-0.28c-6.904,5.94 -3.588,20.16 -3.864,29.34c-9.924,0.16 -11.01,-0.66 -17.004,7.7l21.083,0.21c20.066,-0.05 55.824,0.97 74.768,-0.62c-12.954,-1.8 -27.216,-2.67 -39.598,-4.59c0.028,-6.1 0.603,-28.52 -0.827,-32.52c-3.823,-0.59 -4.374,-0.6 -8.261,-0.49c-3.752,4.93 -2.217,22.62 -2.23,30.07zM995.965,1272.97c-3.826,0.01 -5.982,-0.69 -8.671,1.01c-0.394,7.03 -0.802,29.83 0.288,36.46c3.236,1.02 5.103,0.72 8.463,0.6l33.015,0.07l0.02,-38.06c-11.04,0.08 -22.08,0.06 -33.115,-0.08zM546.034,355.573c-122.562,136.813 -185.611,316.793 -175.218,500.181c10.216,175.066 89.469,338.926 220.365,455.626c2.151,1.89 4.148,3.63 6.39,5.42c25.667,-0.82 51.538,-0.07 76.493,-0.94c58.466,-2.05 115.787,-4.84 174.407,-4.89c4.315,-8.19 22.086,-44.53 27.1,-48.35c8.36,-6.36 64.764,-4.01 76.402,-3.98l102.527,0.04l58.27,-0.17c10.92,-0.03 38.8,-1.92 45.13,6.02c8.79,11.04 18.88,33.47 25.4,46.54c61.75,0.05 122.44,2.68 184.09,4.6c29.02,0.9 60.08,0.48 89.24,0.74c134.5,-115.7 210.57,-277.69 223.67,-453.929c12.36,-183.537 -47.79,-364.597 -167.52,-504.25c-110.48,-128.096 -267.66,-206.6 -436.43,-217.974c-18.26,-1.324 -60.02,-2.566 -77.878,-0.834c-173.567,8.973 -336.398,86.765 -452.438,216.15z"/>

<path transform="translate(0,0)" fill="rgb(3,33,69)" d="M434.951,1051.64c-12.724,-29.91 -23.051,-67.055 -29.784,-98.846c-27.669,-130.232 -15.685,-265.768 34.409,-389.124c62.057,-154.376 185.165,-286.366 339.063,-351.782c154.318,-67.195 329.191,-69.448 485.181,-6.253c158.88,64.157 276.95,186.485 343.4,343.79c60.02,140.551 70.6,297.302 30.02,444.645c-4.37,16.03 -10.05,33.24 -15.61,48.91c-4.39,12.36 -10.82,25.6 -15.1,37.88c-2.75,-4.13 -34.3,-23.71 -40.65,-27.87l-20.61,8.22c-8.64,-5.63 -52.72,-34.53 -59.18,-36.78c-10.57,6.36 -51.37,35.91 -59.02,38.25c-7.06,-2.9 -14.8,-6.15 -21.99,-8.9c-2.95,-1.12 -3.48,-0.16 -5.5,1.19c-11.59,6.66 -25.09,14.8 -36.27,22.12l-16.88,-9.46c-7.45,3.18 -17,7.61 -24.39,10.39l-1.39,0.05c-16.78,-23.67 -21.09,-32.78 -41.82,-56.37l0.96,20.79l5.25,7.01l-4.13,1.41l-1.16,2.71c0.58,7.74 1.06,37.7 1.82,41.52l0.38,1.66c0.67,24.98 3.66,50.68 4.26,75.4c4.16,1.72 9.7,3.81 13.63,5.76l3.66,1.54c8.54,6.28 10.71,9 16.37,18.04c0.19,2.09 0.99,9.1 0.12,10.56c-2.11,3.6 -8.21,9.4 -3,13.91l2.78,0.53c1.99,4.64 0.75,23.77 0.84,30.07c-0.08,4.85 -1.44,12.02 2.82,14.65c4.3,-0.23 4.48,0.56 6.68,-1.73c1.24,-8.33 1,-30.1 0.32,-38.78c3.17,-1.02 3.3,-0.73 5.23,-3.34c0.61,-3.98 -0.95,-5.05 -2.76,-9.54l2.74,-2.84l2.34,-5.91c2.09,-4.82 3.42,-8.69 6.66,-12.82c4.22,-6.18 2,-15.26 1.22,-23.16c2.19,6.32 3.52,9.54 4.31,16.19c3.79,-3.3 7.22,-5.82 11.23,-8.79c8.18,-5.29 17.58,-10 27.5,-9.96c-1.02,0.63 -8.81,2.64 -11.41,3.77l1.6,1.64c3.14,0.42 6.4,-2.61 11.19,-4.12l0.94,1.82c-16.03,5.81 -27.27,13.18 -34.98,29.39c-1.13,2.4 -2.19,4.83 -3.18,7.29c-6.59,-0.24 -10.85,-1.85 -15.36,3.33l0.4,1.24c11.41,1.74 131.85,4.02 138.69,1.44l-0.1,-1.19c-10.43,-17.27 -16.54,-24.2 -33.63,-34.9c-1.75,-2.8 -6.47,-5.11 -9.66,-5.45l-0.8,-0.94c15.8,-2.35 46.35,28.83 48.82,43.71c-1.26,4.3 -2.32,3.58 -6.8,3.86c-0.94,2.31 -0.55,4.1 -0.37,6.6c4.19,0.47 6.5,0.75 10.58,1.71c0.09,11.48 0.5,24.61 -0.08,35.95l-2.48,2.13c-3.67,-3.16 1.49,-30.11 -2.54,-36.06c-0.86,-1.25 -2.53,-1.1 -4.6,-1.52c-5.3,1.56 -29.25,0.91 -36.41,0.83v40.01l40.94,-0.12l-12.39,12.15l-151.79,-0.04l-0.06,-54.87c-25.06,-0.8 -53.19,-0.29 -78.42,-0.19c-8.46,-0.07 -28.04,-0.92 -35.24,1.08l0.62,0.83c11.12,1.47 24.56,0.66 36.08,0.91c1.44,12.14 0.55,40 0.42,52.74c-5.27,0.03 -17.98,-0.65 -21.77,1.67c-5.44,-5.47 -14.92,-29.3 -23.85,-37.68c-11.53,-10.82 -35.56,-7.89 -51.69,-7.84c-14.59,-3.28 -58.36,0.37 -75.34,-1.1c-1.97,-0.17 -0.85,0.38 -2.51,-1.41c0.16,-3.72 0.82,-6.58 -1.16,-9.54c-3.68,-2.42 -1.82,-2.1 -5.59,-1.79c-5.5,4.06 -4.3,5.11 -4.08,11.99c-6.89902,3.66227 -86.00491,0.26867 -137.12671,-0.25532c4.34464,-0.7707 6.92464,-2.25745 4.13171,-10.53468c-0.363,-0.43 -0.726,-0.86 -1.089,-1.29c-5.224,2.43 -8.835,4.96 -6.669,11.34l0.58106,0.45666c-20.65511,-0.16734 -36.18255,0.18994 -39.50106,1.77334l-3.342,0.58c-7.273,-0.14 -23.176,-1.43 -28.83,1.44l-0.429,1.04c5.386,1.02 20.07,-0.65 27.286,-0.29c-14.373,8.68 -30.266,46.67 -40.032,63.73c-44.421,3.4 -88.24,4.14 -132.738,5.3c-24.758,0.64 -49.959,2.45 -74.771,3.49c-9.834,-8.23 -19.445,-16.71 -28.823,-25.45l215.391,-0.14l6.945,-11.41c-61.621,-0.45 -123.243,-0.53 -184.865,-0.24c-11.28,0.02 -36.029,0.4 -48.501,0.25c-0.357,0 -2.207,-1.37 -2.603,-1.82c2.479,-2.65 8.683,-1.98 12.268,-2.03l7.183,-0.9c6.511,-0.38 11.883,1.42 12.878,-5.19c5.681,-2.09 13.689,-4.39 19.692,-6.41c0.604,-16.25 -5.232,-36.31 0.736,-47.61l5.477,-3.87c12.365,-5.92 18.433,-7.62 31.833,-8.99l2.655,0.04c19.24,-1.58 58.506,-0.27 73.137,11.82c-0.937,6.94 -1.154,23.42 -0.157,30.43c0.258,7.7 0.178,18.28 1.213,25.59l0.918,0.45c2.59,-5.27 4.291,-22.59 0.493,-26.42c-1.673,-2.85 -1.375,-41.12 -1.693,-48.11c1.998,-3.35 4.582,-3.38 5.862,-8.48c0.653,2.67 2.072,2.42 3.175,6.13c3.111,-4.56 4.309,-13.23 -2.976,-14.57c-0.807,-16.5 7.098,-5.84 7.107,-20.7l2.194,-5.73c1.256,-6.33 2.477,-8.78 8.52,-10.7l0.912,0.77l1.17,-0.07l-3.618,0.85c-0.063,3.85 -0.565,9.74 0.75,13.1l2.151,1.23l0.041,0.47c-1.549,0.46 -3.735,0.69 -3.774,1.78c-0.826,23.43 -2.591,92.25 -0.212,111.53c1.992,2.58 0.683,1.63 4.446,2.32c1.791,-0.73 5.064,-1.97 5.247,-3.97c1.728,-18.79 0.302,-53.9 0.924,-72.05c0.501,-2.88 0.624,-4.85 2.05,-7.43l0.151,3.34c6.279,4.99 23.973,-1.79 25.127,2.87c-4.424,3.42 -6.786,5.68 -7.137,11.61c-1.255,21.22 -0.299,44.03 -0.488,65.36c8.979,-10.72 16.726,-20.48 24.463,-32.26c-0.123,-27.8 9.669,-19.92 32.498,-20.35c18.164,-14.12 22.063,-8.06 45.305,-6.72c3.59,0.21 10.422,1.34 13.779,2.68c-1.856,2.31 -1.5,1.7 -4.168,3.4c1.246,1 245.763,0.4 269.173,0.8c-4.19,5.24 -9.89,10.55 -5.27,17.04c3.17,1.93 7.09,1.73 10.91,1.97l-1.22,-100.91c-0.16,-16.28 0.83,-31.69 -1.45,-48.43c-1.12,-8.19 2.77,-32.84 -2.26,-40c-3.33,-4.74 -18.87,-8.38 -24.87,-5.55c-3.02,4.36 -2.81,15.48 -2.87,20.89c-0.49,47.47 0.88,95.23 0.09,142.67l-20.22,0.01c-30.21,-27.75 -75.05,-44.69 -116.09,-42.69c-38.442,1.87 -63.289,15.67 -89.167,42.95c-10.826,-1.09 -28.418,-0.18 -39.974,-0.17l15.985,-11.53l6.548,-4.74c7.062,-4.56 14.547,-7.89 21.64,-12.72c2.56,0.23 2.749,0.54 5.265,1.46l0.634,-2.14c2.425,-3.05 9.331,-5.42 13.034,-6.75c30.979,-11.16 63.915,-13.24 96.285,-9.87l5.24,0.79c25.98,5.53 34.46,9.34 58.55,20.48c2.82,2.07 5.91,4.51 8.94,6.13l8.65,5.14l2.57,-87.21l19.51,-6.65c-6.96,0.52 -9.94,0.92 -16.72,2.44c-0.12,-16.4 0.55,-32.98 0.82,-49.42l14.08,-10.42c0.15,-5.09 -0.19,-6.83 2.99,-10.44c4.05,-9.93 -5.08,-10.23 -4.88,-15.12c2.9,0.4 4.1,0.64 7.03,0c1.77,-4.09 3.17,-39.649 2.67,-45.246l1.63,-5.208c1.63,5.745 1.07,11.022 0.93,17.038c-0.19,3.823 -0.52,7.88 -0.33,11.673c0.16,14.913 -0.32,29.833 -1.43,44.713c2.59,1.94 3.68,2.25 7.39,1.85l2.92,-1.16c14.94,3.17 13.17,4.74 22.1,16.2l0.04,18.56l0.24,8.46l0.11,43.59c1.94,15.59 0.1,43.14 0.86,60.11l-0.01,11.37l-0.01,39.05c5.21,2.26 5.88,2.67 10.1,6.46c1.48,-14.63 -0.06,-29.3 1.36,-43.1c1.05,-10.16 15.22,-19.51 24.32,-24.38c0.21,-10.03 3.07,-35.26 1.57,-43.45c0.69,-4.7 0.72,-4.45 -0.69,-8.99l-0.23,0.33c2.05,-11.97 3.11,-15.13 3.45,-27.33c2.14,-24.24 4.27,-60 5.1,-84.2c0.33,-8.8 -0.55,-9.537 -4.54,-17.284l0.41,-0.918l-0.93,-0.299l0.08,-0.582l4.14,3.397l3.95,-0.043l0.39,-0.163c2.25,-8.584 3.02,-62.378 3.36,-75.426c-4.14,-2.009 -7.85,-4.366 -11.79,-6.746c17.7,-6.42 37.02,-5.356 54.87,-0.162l-11.86,7.545c7.46,-1.341 20.72,-3.033 26.61,-7.028c33.76,-22.913 3.47,-31.217 -17.18,-35.912l-0.98,-3.476c-0.93,-4.81 -3.29,-7.735 -7.41,-10.526c-5.19,-3.444 -11.52,-4.731 -17.64,-3.589c-7.13,1.354 -13.46,7.522 -14.32,14.738l-0.17,1.946c-11.9,1.368 -45.52,4.03 -42.24,21.356c2.71,14.316 27.39,20.036 38.99,22.865c-0.88,16.181 -1.94,39.905 -1.68,56.084l-2.13,0.922c-16.56,-11.996 -31.63,-23.273 -49.35,-33.648c-83.66,-48.979 -172.02,-63.477 -267.404,-48.263c-98.916,16.578 -187.32,71.453 -246.069,152.742c-19.463,26.92 -35.443,56.2 -47.56,87.14l-2.614,0.63c-14.823,-5.38 -27.403,-11.85 -41.419,-18.92l-22.031,8.72c-15.156,-7.79 -33.887,-19.46 -48.903,-28.23l-10.4,4.57c-5.461,-143.204 151.613,-291.266 254.81,-371.653c113.837,-88.373 240.647,-157.341 362.35,-233.857c8.74,-5.492 19.94,-12.284 27.79,-18.915c18.78,-12.43 36.82,-24.706 54.95,-38.063c7.08,-5.217 13.89,-8.324 21.46,-14.357l-8.88,-9.03c-8.5,7.026 -9.9,8.5 -14.76,18.47c-6.15,2.628 -41.37,26.603 -49.6,31.789c-29.01,18.037 -58.48,35.316 -88.39,51.82c-197.807,110.511 -522.463,277.303 -609.848,496.346c-4.892,12.46 -8.965,25.22 -12.191,38.21zM1259.93,1220.17c-0.19,-0.79 -0.42,-4.27 -0.52,-5.29c-2.32,-3.06 -0.88,-1.88 -4.71,-3.38l-2.41,1.13c-2,4.18 -1.26,3.5 -0.94,8.82l0.67,0.95c4.22,0.33 6.86,1.29 10.07,-0.47c-0.61,-0.46 -1.71,-1.23 -2.16,-1.76zM1084.92,691.065c62.47,-41.885 149.82,-55.178 223.21,-40.762c86.32,16.953 172.95,76.124 222,148.974c26.63,39.543 50.56,96.741 51.98,144.2c-0.12,9.02 -0.32,15.757 0.81,24.771l1.82,-16.545c6.32,-73.651 -14.92,-147.027 -59.62,-205.904c-48.42,-64.879 -123.89,-111.035 -204.27,-122.238c-67.7,-9.029 -136.51,4.309 -195.94,37.985c-16.08,9.175 -27.1,17.485 -41.76,28.507c-3.02,2.406 -6.49,4.529 -8.22,7.686c4.28,-1.845 6.4,-3.833 9.99,-6.674zM786.488,1295.62c3,1.23 8.709,0.49 12.213,0.3l0.613,-1.28c-4.27,-0.95 -7.408,-0.54 -11.737,-0.33zM1071.09,800.348c1.3,1.939 3.92,2.469 5.87,1.188c1.28,-0.841 2.02,-2.306 1.92,-3.836c-0.1,-1.529 -1.01,-2.889 -2.39,-3.559c-1.38,-0.67 -3.01,-0.548 -4.28,0.319c-1.92,1.323 -2.42,3.949 -1.12,5.888zM1072.02,249.549c-0.45,1.527 -0.02,3.18 1.12,4.288c1.15,1.109 2.81,1.489 4.33,0.987c2.14,-0.711 3.36,-2.961 2.78,-5.141c-0.57,-2.181 -2.73,-3.543 -4.95,-3.113c-1.56,0.304 -2.83,1.452 -3.28,2.979zM659.38,968.553c0.452,2.358 2.739,3.895 5.093,3.423c2.325,-0.467 3.839,-2.72 3.393,-5.049c-0.447,-2.329 -2.687,-3.863 -5.02,-3.437c-2.361,0.431 -3.918,2.705 -3.466,5.063zM1253.12,746.521c-0.61,28.059 -1.68,56.186 -2.81,84.226c-0.3,7.351 -2.29,19.633 3.99,24.621l2.44,-0.751c3.93,-4.877 1.44,-35.068 1.18,-42.625l-2.02,-69.412c0.22,-10.907 -0.25,-18.46 -1.41,-29.361c-0.89,10.793 -1.91,22.508 -1.37,33.302zM1091.53,619.46c1.21,2.095 3.9,2.797 5.99,1.564c2.05,-1.218 2.75,-3.867 1.55,-5.936c-1.2,-2.069 -3.85,-2.784 -5.92,-1.603c-2.11,1.196 -2.84,3.88 -1.62,5.975zM807.041,267.24c1.04,2.047 3.457,2.979 5.602,2.161c1.605,-0.612 2.719,-2.086 2.872,-3.796c0.152,-1.711 -0.685,-3.359 -2.157,-4.244c-1.471,-0.886 -3.319,-0.854 -4.759,0.081c-1.926,1.25 -2.598,3.752 -1.558,5.798zM1272.31,1220.25c2.83,0.5 3.53,0.57 6.4,0.62c0.01,-4.55 0.84,-5.45 -1.27,-8.38c-2.86,-0.59 -3.46,-0.62 -6.4,-0.71c0.01,4.59 -0.77,5.25 1.27,8.47zM1565.76,681.197c0.6,2.543 3.16,4.113 5.7,3.503c2.52,-0.607 4.08,-3.14 3.48,-5.667c-0.59,-2.526 -3.12,-4.096 -5.65,-3.512c-2.54,0.588 -4.12,3.133 -3.53,5.676zM1295.73,1220.11c3,1.25 3.67,1 6.91,1c-0.01,-4.22 0.73,-6.29 -1.33,-9.3c-2.86,-0.58 -3.12,-0.55 -6.06,-0.49c-0.47,4.86 -1.29,5.07 0.48,8.79zM1389.36,965.794c-0.61,1.746 -0.17,3.686 1.13,5.002c1.29,1.315 3.23,1.778 4.98,1.192c2.37,-0.789 3.75,-3.239 3.2,-5.669c-0.55,-2.43 -2.85,-4.049 -5.32,-3.746c-1.84,0.226 -3.39,1.475 -3.99,3.221zM867.636,311.046c1.152,2.41 4.001,3.481 6.455,2.428c1.68,-0.72 2.829,-2.302 2.996,-4.122c0.166,-1.819 -0.677,-3.584 -2.198,-4.597c-1.521,-1.013 -3.474,-1.112 -5.089,-0.258c-2.361,1.25 -3.316,4.139 -2.164,6.549zM1249.57,1177.82c-6.09,6.4 -6.13,7.17 -11.14,14.14c-7.41,-0.33 -23.5,-1.31 -29.9,1.02c6.06,1.82 22.57,1.48 29.75,1.48c-0.58,3.45 -0.76,8.25 -0.99,11.83c23.7,0.98 54.71,0.05 79.11,0.13c-10.9,-32.52 -32.84,-31.55 -61.8,-31.29c-5.69166,0.11036 -17.85259,-0.12728 -25.44537,1.36423l1.28537,3.04577c3.62,-0.32 16.75,-1.05 19.13,-1.72zM1229.06,1176.27l0.02332,0.23832c0.02372,-0.00471 0.04749,-0.00941 0.07131,-0.01409zM1229.08332,1176.50832c-0.31223,0.06201 -0.61661,0.12699 -0.91237,0.19506l1.20905,2.83662zM1228.08,1176.49l0.0161,0.23072c0.02489,-0.0058 0.04984,-0.01158 0.07485,-0.01734zM1228.0961,1176.72072c-0.48404,0.11283 -0.94458,0.23409 -1.37818,0.36442l1.02208,2.38486l0.55,0.03zM1226.63,1176.88l-1.59802,0.82241c0.50004,-0.22562 1.0654,-0.43074 1.68594,-0.61727zM1225.03198,1177.70241c-0.28599,0.12904 -0.55061,0.26478 -0.79198,0.40759zM1412.24,1223.02l-0.88,1.77l-1.84,0.55c4.02,2.25 10.07,0.73 14.5,-0.24l-1.74,-1.29c-0.53,-2.5 -0.8,-3.64 -1.63,-6.04c-3.46,-2.31 -1.76,-2.07 -5.07,-1.86c-3.27,3.01 -2.24,1.94 -3.34,7.11zM1488.89,494.432c0.2,1.957 1.45,3.648 3.27,4.401c1.82,0.753 3.9,0.447 5.42,-0.798c2.21,-1.805 2.61,-5.027 0.91,-7.317c-1.7,-2.29 -4.9,-2.839 -7.27,-1.247c-1.63,1.098 -2.52,3.004 -2.33,4.961zM1124.23,1232.64c2.93,1.15 4.56,0.8 7.69,0.63c-0.1,-4.52 0.61,-6.83 -1.55,-10.19c-3.16,-1.03 -3.83,-0.78 -7.12,-0.65c-0.18,4.64 -1.02,6.57 0.98,10.21zM952.082,756.668c-0.372,1.952 0.345,3.951 1.872,5.222c1.527,1.27 3.624,1.611 5.475,0.889c2.755,-1.074 4.155,-4.146 3.157,-6.929c-0.998,-2.784 -4.03,-4.268 -6.84,-3.347c-1.888,0.619 -3.291,2.214 -3.664,4.165zM974.167,1232.84c2.95,1.55 5.298,1.05 8.686,0.9c0.092,-3.53 0.735,-7.7 -1.166,-10.39c-2.818,-1.47 -5.134,-1.01 -8.367,-0.9c-0.218,3.6 -0.974,7.5 0.847,10.39zM1097.19,1233.12c2.96,1.47 5.46,0.95 8.83,0.79c0.05,-3.5 0.65,-7.85 -1.29,-10.44c-2.88,-1.38 -5.31,-0.89 -8.55,-0.73c-0.16,3.53 -0.89,7.7 1.01,10.38zM705.177,602.089c1.248,2.786 4.415,4.16 7.302,3.168c2.113,-0.726 3.634,-2.584 3.93,-4.799c0.295,-2.215 -0.686,-4.406 -2.535,-5.661c-1.849,-1.255 -4.248,-1.357 -6.197,-0.265c-2.663,1.493 -3.747,4.771 -2.5,7.557zM614.764,603.392c1.373,3.449 5.219,5.204 8.723,3.981c2.405,-0.84 4.156,-2.931 4.56,-5.446c0.403,-2.515 -0.605,-5.049 -2.627,-6.599c-2.022,-1.55 -4.731,-1.865 -7.055,-0.822c-3.386,1.519 -4.974,5.437 -3.601,8.886zM993.063,344.163c1.622,3.576 5.74,5.28 9.417,3.897c2.6,-0.979 4.44,-3.327 4.77,-6.088c0.34,-2.762 -0.9,-5.478 -3.19,-7.047c-2.3,-1.569 -5.28,-1.728 -7.731,-0.414c-3.46,1.855 -4.889,6.077 -3.266,9.652zM809.475,825.573c1.834,3.698 6.314,5.215 10.019,3.393c3.723,-1.831 5.249,-6.338 3.405,-10.054c-1.844,-3.717 -6.356,-5.228 -10.066,-3.37c-3.692,1.847 -5.193,6.333 -3.358,10.031zM718.096,1301.1l14.157,-0.57c6.918,0.09 15.678,1.35 20.572,-3.32c0.284,-5.3 -7.193,-8.99 -11.346,-8.39c-9.068,6.46 -12.793,8.58 -23.383,12.28zM842.286,488.837c1.667,4.526 6.663,6.871 11.21,5.261c2.993,-1.06 5.185,-3.648 5.738,-6.774c0.552,-3.127 -0.62,-6.31 -3.069,-8.331c-2.449,-2.021 -5.796,-2.568 -8.762,-1.433c-4.504,1.726 -6.785,6.751 -5.117,11.277zM456.391,802.693c1.328,4.794 6.269,7.626 11.077,6.348c3.155,-0.839 5.616,-3.307 6.446,-6.465c0.829,-3.157 -0.101,-6.517 -2.437,-8.798c-2.335,-2.281 -5.716,-3.131 -8.853,-2.227c-4.781,1.377 -7.561,6.347 -6.233,11.142zM535.971,539.813c-1.118,3.279 -0.299,6.908 2.119,9.389c2.418,2.481 6.024,3.394 9.331,2.362c4.577,-1.429 7.289,-6.132 6.233,-10.809c-1.055,-4.676 -5.525,-7.759 -10.271,-7.083c-3.43,0.488 -6.295,2.862 -7.412,6.141zM976.447,249.781c2.099,4.651 7.58,6.709 12.222,4.589c4.613,-2.106 6.655,-7.545 4.569,-12.166c-2.085,-4.622 -7.514,-6.689 -12.145,-4.625c-4.662,2.078 -6.745,7.55 -4.646,12.202zM1352.92,1266.58c2.1,1.3 1.74,1.16 4.06,2.04c4.38,-6.58 1.86,-29.56 2.01,-38.15c0.01,-0.81 -0.66,-2.09 -1.04,-2.89l-2.54,-1.33c-5.24,7.09 -5.04,32.2 -2.49,40.33zM1395.28,556.01c-12.12,4.542 -19.39,6.047 -32.25,7.899c11.72,1.611 21.78,2.828 32.63,7.735c4.35,10.515 6.21,28.689 7.72,31.558c1.78,-11.098 2.91,-21.148 7.35,-31.586c13.37,-5.329 19.06,-5.894 33.4,-7.638c-12.14,-2.044 -21.84,-3.587 -33.49,-7.998c-3.95,-9.942 -5.76,-25.757 -7.98,-30.446c-1.56,12.306 -2.56,19.081 -7.38,30.476zM1241.15,419.175c5.34,15.455 6.06,23.737 4.4,40.336c18.6,-4.04 31.2,-59.708 23.53,-67.656c-9.13,9.121 -18.39,18.663 -27.93,27.32zM1376.93,1267.07l52.82,-0.08l0.16,-39.87c-17.51,-0.14 -35.03,-0.12 -52.55,0.07c-1.14,9.83 -0.5,29.29 -0.43,39.88zM648.21,1258.4l14.386,-0.05c-0.035,-6.19 -1.293,-26.82 2.1,-30.42c3.461,-0.82 3.218,-0.9 6.577,0.19c5.745,5.81 1.31,20.28 2.927,29.1c2.821,2.27 5.602,1.13 8.333,-0.77c6.168,-10.57 -6.775,-31.59 9.649,-28.9c2.683,2.86 1.939,8.64 1.801,12.66l-0.055,1.54c-0.269,6.56 -1.708,15.22 5.616,18.44c10.678,-4.85 0.461,-23.81 7.298,-32.36c3.707,-1.07 1.87,-1.06 5.699,0.23c8.551,9.57 -4.238,28.12 7.954,31.31c9.194,-4.09 6.175,-15.54 6.446,-23.67c0.867,-26.05 -8.713,-35.15 -34.345,-33.23c-7.786,0.58 -19.12,0.13 -27.486,0.66c-23.342,10.49 -16.893,33.26 -16.9,55.27zM749.515,347.797c-2.055,15.499 -6.79,30.36 -10.029,45.545c-23.436,8.412 -40.691,11.481 -65.159,14.609c25.843,3.212 40.12,5.874 65.115,14.964c1.685,7.362 12.598,62.109 13.247,62.982l0.076,-0.018c3.968,-24.284 6.469,-39.596 12.997,-63.369c24.628,-8.092 39.794,-11.743 65.594,-14.609c-22.192,-2.909 -45.01,-5.606 -65.833,-14.377c-4.653,-16.289 -8.401,-32.225 -10.7,-49.008c-0.585,-4.274 -1.181,-9.675 -2.271,-13.787c-1.248,5.512 -2.292,11.446 -3.037,17.068zM1245.38,363.286c-33.13,0.976 -46.69,3.16 -71.72,24.415c15.31,-0.139 22.29,0.181 36.85,5.32l2.95,1.98c-0.45,4.94 -3.37,3.581 -1.61,5.225c8.66,8.084 14.2,11.701 21.67,21.249c18,-23.072 96.67,-89.202 90.12,-115.835l-1.15,-0.416c-35.77,7.615 -53.47,30.814 -77.11,58.062zM1261.82,924.677c-2.33,-3.084 -0.92,-2.672 -2.13,-6.159c0.26,5.054 -0.37,15.684 -0.93,20.985c-0.18,-4.807 0.35,-18.974 -1.69,-21.904c-3.07,-1.582 -1.48,-1.272 -4.95,-0.93c-2.74,2.95 -2.14,16.6 -2.1,21.228c0.69,77.243 -2.12,154.733 -1.87,231.933c5.27,-1.81 6.84,-2.21 12.4,-2.11c4.36,-3.07 2.95,-8.12 2.79,-13.31c1.15,4.81 0.94,12.11 2.16,14.29c3.37,1 9.97,1.39 13.71,1.73c-0.18,-42.41 -4.42,-91.87 -5.84,-134.98l-2.14,-80.971c-0.26,-10.659 -0.26,-24.127 -1.51,-34.818c-0.26,-2.203 -1.51,-2.551 -2.98,-3.431l-2.79,1.008c-2.67,3.204 -1.82,2.329 -2.13,7.439z"/>

<path transform="translate(0,0)" fill="rgb(46,77,115)" d="M810.085,951.517c-67.625,51.623 -122.716,117.453 -157.416,195.373c-5.954,13.37 -21.487,49.05 -22.007,62.85c-5.968,11.3 -0.132,31.36 -0.736,47.61c-6.003,2.02 -14.011,4.32 -19.692,6.41c-0.639,-5.82 -0.454,-12.46 -0.125,-18.24c7.735,-136.04 99.015,-263.092 225.16,-314.516c3.974,-1.62 12.565,-5.506 16.296,-5.281c-9.904,7.915 -23.979,13.257 -35.114,21.854c2.528,-0.509 35.115,-17.567 38.395,-19.813c8.232,-3.829 35.225,-17.355 42.776,-15.85c1.712,2.335 2.079,3 4.261,4.976c-12.811,5.739 -39.268,21.416 -49.278,23.216c-4.279,0.589 -7.701,0.75 -11.614,2.548l0.135,0.95c4.193,0.624 6.606,-0.04 10.861,-0.684c-14.607,11.146 -22.073,17.285 -32.531,32.283c-3.483,-8.087 -6.321,-15.421 -9.371,-23.686z"/>
<path transform="translate(0,0)" fill="rgb(88,119,161)" d="M841.126,943.604l-0.135,-0.95c3.913,-1.798 7.335,-1.959 11.614,-2.548c10.01,-1.8 36.467,-17.477 49.278,-23.216c3.098,2.495 11.18,8.684 12.346,11.878l-1.428,0.305c-9.545,1.256 -15.955,2.418 -25.259,5.067c-7.005,-2.011 -27.502,5.773 -34.164,9.311l-1.391,-0.531c-4.255,0.644 -6.668,1.308 -10.861,0.684z"/>
<path transform="translate(0,0)" fill="rgb(230,236,243)" d="M897.622,911.914l1.467,-1.028c1.763,1.27 5.276,3.947 6.986,4.968c3.243,2.57 9.421,7.154 11.934,10.062c-3.271,1.188 -2.14,0.16 -3.78,2.852c-1.166,-3.194 -9.248,-9.383 -12.346,-11.878c-2.182,-1.976 -2.549,-2.641 -4.261,-4.976z"/>
<path transform="translate(0,0)" fill="rgb(176,193,217)" d="M912.801,929.073l-2.792,3.403c-5.229,0.286 -19.021,2.088 -22.467,1.664c9.304,-2.649 15.714,-3.811 25.259,-5.067z"/>
<path transform="translate(0,0)" fill="rgb(176,193,217)" d="M851.565,925.723c-9.904,7.915 -23.979,13.257 -35.114,21.854c2.528,-0.509 35.115,-17.567 38.395,-19.813z"/>
<path transform="translate(0,0)" fill="rgb(95,126,167)" d="M830.52,1013.22c20.015,33.91 37.4,64.82 58.353,98.91c-6.37,0.45 -20.285,1.1 -25.778,2.92c-4.971,-4.97 -9.885,0.62 -10.04,-8.57c-0.065,-3.81 -1.018,-4.99 -3.264,-7.77c-1.959,-6.02 0.65,-15.05 -2.743,-20.92l-0.193,-1.78c-0.724,-7.19 -0.055,-16.54 -0.798,-25.19c-0.952,8.9 -3.134,37.22 -1.898,45.09c-1.352,4.66 -5.888,19.95 -8.921,22.17l-6.385,-0.25c3.398,-0.46 4.422,-0.46 7.653,-1.85c-5.735,-1.87 -73.29,5.34 -83.434,6.69c4.18,-5.41 8.812,-12.18 12.613,-17.93c20.473,-30.97 44.415,-60.7 64.835,-91.52z"/>
<path transform="translate(0,0)" fill="rgb(24,48,84)" d="M846.057,1050.82c0.743,8.65 0.074,18 0.798,25.19l0.193,1.78l-0.623,22.23l-2.266,-4.11c-1.236,-7.87 0.946,-36.19 1.898,-45.09z"/>
<path transform="translate(0,0)" fill="rgb(95,126,167)" d="M934.891,1174c2.425,-3.05 9.331,-5.42 13.034,-6.75c30.979,-11.16 63.915,-13.24 96.285,-9.87c8.05,-12.96 17.95,-28.09 25.17,-41.29c-56.78,-1.05 -113.581,-0.98 -170.362,0.2c11.321,19.35 24.158,38.43 35.873,57.71z"/>
<path transform="translate(0,0)" fill="rgb(95,126,167)" d="M1126.84,1114.94c0.26,3.35 0.83,2.08 -0.94,4.23c-9.76,0.36 -37.58,-1.88 -48.05,-3.16c6.68,12.07 38.3,60.31 39.09,68.77l8.65,5.14l2.57,-87.21l19.51,-6.65c-6.96,0.52 -9.94,0.92 -16.72,2.44c-0.12,-16.4 0.55,-32.98 0.82,-49.42l14.08,-10.42c0.15,-5.09 -0.19,-6.83 2.99,-10.44c-4.7,-4.3 -9.11,-10.39 -13.09,-15.51c-13.05,27.6 -41.47,72.2 -58.06,99.15c6.92,0.24 46.3,1.35 49.15,3.08z"/>
<path transform="translate(0,0)" fill="rgb(95,126,167)" d="M853.378,943.451l-1.391,-0.531c-14.607,11.146 -22.073,17.285 -32.531,32.283c4.167,9.868 8.477,19.676 12.928,29.417c22.457,-25.594 51.582,-50.309 77.625,-72.144c-5.229,0.286 -19.021,2.088 -22.467,1.664c-7.005,-2.011 -27.502,5.773 -34.164,9.311z"/>
<path transform="translate(0,0)" fill="rgb(95,126,167)" d="M893.326,1119.17c4.978,7.5 32.199,52.87 35.666,55.51c-7.093,4.83 -14.578,8.16 -21.64,12.72c-5.279,-12.37 -14.833,-5.78 -21.353,-11.32c0.184,-8.6 1.216,-34.97 -1.062,-42.11l0.182,-0.67c3.3,-3.61 5.917,-9.62 8.207,-14.13z"/>
<path transform="translate(0,0)" fill="rgb(7,23,56)" d="M884.937,1133.97c2.278,7.14 1.246,33.51 1.062,42.11c0.03,4.64 0.418,11.46 -0.66,15.76c-2.227,-0.52 -1.9,-0.45 -3.975,-1.36c-3.799,-8.31 1.182,-39.61 -2.136,-48.63l0.633,-3.42l-0.49,-1.87z"/>
<path transform="translate(0,0)" fill="rgb(73,105,144)" d="M885.999,1176.08c6.52,5.54 16.074,-1.05 21.353,11.32l-6.548,4.74c-4.611,-1.76 -10.697,-1.27 -15.465,-0.3c1.078,-4.3 0.69,-11.12 0.66,-15.76z"/>
<path transform="translate(0,0)" fill="rgb(95,126,167)" d="M1049.45,1158.17c25.98,5.53 34.46,9.34 58.55,20.48c-7.81,-17.57 -24.06,-42.36 -34.6,-59.33c-8.15,12.84 -16.14,25.8 -23.95,38.85z"/>
<path transform="translate(0,0)" fill="rgb(46,77,115)" d="M636.139,1205.87c4.104,-16.82 13.224,-40.74 19.075,-57.36c3.602,12.16 8.978,38.47 12.758,48.37c-13.4,1.37 -19.468,3.07 -31.833,8.99z"/>
<path transform="translate(0,0)" fill="rgb(95,126,167)" d="M918.009,925.916c-2.513,-2.908 -8.691,-7.492 -11.934,-10.062c14.2,-3.472 21.918,-6.999 37.978,-9.867c3.118,0.309 8.25,0.713 11.204,1.456c-8.892,3.724 -31.286,17.08 -37.248,18.473z"/>
<path transform="translate(0,0)" fill="rgb(88,119,161)" d="M1139.09,1006.63c4.55,0.79 6.58,0.92 10.73,2.76c1.34,2.11 1.11,1.31 1.17,3.71c1.77,-4.09 3.17,-39.649 2.67,-45.246z"/>
<path transform="translate(0,0)" fill="rgb(24,48,84)" d="M1159.63,947.423l0.27,-2.163c4.09,-1.351 27.82,14.745 31.83,18.004c-4.24,-0.878 -18.23,-7.869 -23.48,-10.159c-3.48,-1.584 -6.72,-2.509 -8.62,-5.682z"/>
<path transform="translate(0,0)" fill="rgb(230,236,243)" d="M1168.25,953.105c5.25,2.29 19.24,9.281 23.48,10.159l2.3,0.847c-1.98,1.983 -1.15,1.459 -3.74,2.356c-7.83,-3.602 -14.87,-6.96 -23.07,-9.753l-1.12,-1.261z"/>
<path transform="translate(0,0)" fill="rgb(46,77,115)" d="M899.089,910.886c9.554,-3.389 33.78,-6.425 44.096,-7.348l0.868,2.449c-16.06,2.868 -23.778,6.395 -37.978,9.867c-1.71,-1.021 -5.223,-3.698 -6.986,-4.968z"/>
<path transform="translate(0,0)" fill="rgb(73,105,144)" d="M944.053,905.987c3.118,0.309 8.25,0.713 11.204,1.456c5.632,-1.818 11.214,-3.789 16.739,-5.911c-8.496,0.313 -20.578,0.602 -28.811,2.006z"/>
<path transform="translate(0,0)" fill="rgb(24,48,84)" d="M622.627,1134.11c-4.07,10.69 -7.329,20.26 -10.854,31.12l-0.928,-3.34c1.572,-8.9 5.82,-18.63 9.168,-27.15z"/>
<path transform="translate(0,0)" fill="rgb(95,126,167)" d="M911.575,1094.77c-3.983,5.43 -8.266,11.36 -12.616,16.46c27.95,-0.19 56.033,-1.32 83.791,-1.29c28.86,0.02 56.73,1.16 85.3,1.36c-17.86,-24.08 -35.98,-47.97 -54.35,-71.67c-8.8,-11.43 -21.056,-28.15 -30.391,-38.77c-23.8,31.41 -48.418,62.13 -71.734,93.91z"/>
<path transform="translate(0,0)" fill="rgb(95,126,167)" d="M1073.57,1109.23c7.95,-12.03 14.93,-23.75 22.3,-36.15c12.55,-20.88 24.96,-41.85 37.23,-62.9c-9.99,-0.48 -19.73,-1.67 -29.67,-2.7c-37.6,-3.92 -75.91,-8.152 -113.725,-8.635c28.625,37.695 55.795,71.655 83.865,110.385z"/>
<path transform="translate(0,0)" fill="rgb(95,126,167)" d="M835.41,1010.6c13.058,23.64 28.075,48.42 42.108,71.61c5.659,8.94 11.863,18.35 17.033,27.52c26.71,-37.95 54.813,-74.9 84.251,-110.773c-5.009,0.123 -11.802,0.088 -16.644,0.613c-42.339,2.57 -84.602,6.25 -126.748,11.03z"/>
<path transform="translate(0,0)" fill="rgb(95,126,167)" d="M837.062,1006.48c19.239,-2.42 38.891,-5.12 58.181,-6.672c27.686,-2.413 55.414,-4.304 83.171,-5.674l-37.343,-39.16c-5.126,-5.381 -17.689,-18.853 -23.075,-23.129c-28.693,25.856 -53.169,46.484 -80.934,74.635z"/>
<path transform="translate(0,0)" fill="rgb(95,126,167)" d="M989.1,993.911c26.46,0.47 60.45,2.842 87.01,5.845c18.17,1.624 36.31,3.574 54.41,5.854c-18.75,-18.038 -37.95,-35.603 -57.58,-52.679c-5.4,-4.787 -18.98,-17.552 -24.26,-21.313c-20,20.631 -39.86,41.396 -59.58,62.293z"/>
<path transform="translate(0,0)" fill="rgb(46,77,115)" d="M748.15,1122.17c-5.296,-24.04 -16.587,-62.23 -23.515,-86.72c21.086,-5.51 42.229,-10.79 63.425,-15.86c-2.252,6.94 -8.29,17.34 -11.682,24.32c-8.434,17.36 -20.587,47.03 -21.902,65.98c-0.837,2.21 -5.022,9.78 -6.326,12.28z"/>
<path transform="translate(0,0)" fill="rgb(95,126,167)" d="M776.378,1043.91c-8.434,17.36 -20.587,47.03 -21.902,65.98c4.046,-4.99 7.463,-10.02 11.122,-15.27c19.446,-27.92 38.701,-56.55 60.441,-82.78c-11.887,2.16 -26.6,4.6 -37.979,7.75c-2.252,6.94 -8.29,17.34 -11.682,24.32z"/>
<path transform="translate(0,0)" fill="rgb(46,77,115)" d="M660.119,1139.45c7.012,-1.52 14.351,-3.22 21.381,-4.46c21.569,-4.21 43.241,-7.86 64.996,-10.96c-3.04,-9.16 -22.985,-83.32 -23.951,-84.33c-23.177,35.51 -41.06,63.12 -62.426,99.75z"/>
<path transform="translate(0,0)" fill="rgb(95,126,167)" d="M923.826,930.33c20.969,21.016 40.152,40.049 59.967,62.057l19.417,-20.154c13.18,-13.984 29.04,-28.169 41.01,-41.246c-18.98,-2.198 -77.78,-2.571 -97.352,-1.55z"/>
<path transform="translate(0,0)" fill="rgb(95,126,167)" d="M1135.18,1003.82c1.95,-4.401 4.12,-9.062 5.87,-13.523l13.71,-37.517c-26.66,-7.708 -53.89,-12.603 -81.08,-18.062c-5.46,-1.096 -11.55,-2.211 -17.05,-2.831c24.85,21.493 55.92,48.466 78.55,71.933z"/>
<path transform="translate(0,0)" fill="rgb(46,77,115)" d="M808.646,954.826l7.575,21.858c-5.443,8.443 -20.415,30.826 -23.873,38.726c-21.36,4.4 -42.495,9.84 -63.33,16.28c7.605,-5.78 22.329,-21.02 29.466,-28.09c16.439,-16.546 33.162,-32.806 50.162,-48.774z"/>
<path transform="translate(0,0)" fill="rgb(95,126,167)" d="M792.348,1015.41l35.617,-6.97c-4.089,-10.483 -8.398,-21.022 -11.744,-31.756c-5.443,8.443 -20.415,30.826 -23.873,38.726z"/>
<path transform="translate(0,0)" fill="rgb(95,126,167)" d="M925.913,927.228c19.193,-1.612 44.155,-2.07 63.694,-2.041c17.803,0.185 35.593,0.843 53.363,1.975c-12.02,-6.364 -49.263,-26.531 -61.269,-26.137c-21.36,8.155 -35.853,14.396 -55.788,26.203z"/>
<path transform="translate(0,0)" fill="rgb(95,126,167)" d="M1073.73,910.857c13.47,3.923 29.52,11.86 42.25,17.999c8.07,3.936 22.91,10.632 29,16.464c-4.45,-0.716 -8.82,-1.656 -13.2,-2.71c-25.93,-6.249 -52.17,-10.26 -78.48,-14.593c6.43,-5.703 13.79,-11.607 20.43,-17.16z"/>
<path transform="translate(0,0)" fill="rgb(7,23,56)" d="M1155.4,942.109l0.19,3.34l-1.05,0.888c-3.36,-1.4 -4.35,-1.999 -7.46,-3.948c-8,-5.259 -18.5,-10.927 -26.94,-15.78c7.81,1.964 29.53,10.181 35.26,15.5z"/>
<path transform="translate(0,0)" fill="rgb(230,236,243)" d="M1144.98,945.32l1.37,0.889c0.76,-1.925 0.54,-1.677 0.73,-3.82c-8,-5.259 -18.5,-10.927 -26.94,-15.78l-4.16,2.247c8.07,3.936 22.91,10.632 29,16.464z"/>
<path transform="translate(0,0)" fill="url(#Gradient1)" d="M1049.5,926.266l11.02,-8.448l10.93,-7.946c-24,-3.813 -50.93,-8.848 -75.202,-8.639c16.802,7.535 37.592,15.029 53.252,25.033z"/>
<path transform="translate(0,0)" fill="rgb(226,155,40)" d="M577.905,1271.88c-45.715,-46.79 -86.305,-99.8 -116.181,-158.15c-1.628,-3.18 -12.207,-23.44 -12.553,-25.19c-5.16,-26.11 12.531,-69.91 23.445,-92.627c14.437,-30.053 34.437,-60.382 54.658,-85.68c126.473,-158.226 320.744,-268.118 494.846,-364.961c23.99,-13.229 47.78,-26.812 71.37,-40.745c9.81,-5.842 39.27,-24.718 48.72,-28.072c-7.85,6.631 -19.05,13.423 -27.79,18.915c-121.703,76.516 -248.513,145.484 -362.35,233.857c-103.197,80.387 -260.271,228.449 -254.81,371.653c2.755,22.47 4.97,33.75 12.726,55.31c12.516,31.38 30.651,60.22 53.514,85.1c5.532,6.09 23.238,23.59 26.673,28.56c-3.585,0.05 -9.789,-0.62 -12.268,2.03z"/>
<path transform="translate(0,0)" fill="rgb(46,77,115)" d="M611.773,1165.23c-8.345,29.31 -16.44,73 -14.417,103.72l-7.183,0.9c-3.435,-4.97 -21.141,-22.47 -26.673,-28.56c-22.863,-24.88 -40.998,-53.72 -53.514,-85.1c27.53,-0.8 23.094,-5.63 43.882,-13.21c22.502,10.49 30.167,16.56 54.956,19.86l2.021,-0.95z"/>

<path transform="translate(0,0)" fill="rgb(3,33,69)" d="M879.228,1141.85c-11.814,1.03 -23.408,0.06 -35.032,0.83c-0.022,15.94 0.117,32.16 -0.102,48.08l-29.086,0.23c-0.751,-14.06 0.013,-38.04 0.226,-52.31l0.103,0.7c5.435,-7.02 8.156,-9.07 8.176,-17.9c2.031,-2.53 2.4,-2.42 5.34,-3.65l6.385,0.25c3.033,-2.22 7.569,-17.51 8.921,-22.17l2.266,4.11c-0.299,9 -2.482,28.1 -2.13,34.63c6.181,-0.04 26.9,-0.47 31.386,0.8l2.423,2.86l1.757,0.12zM821.083,1147.07c3.308,1.79 8.967,0.81 12.676,0.36c2.708,-0.28 5.078,-0.14 7.112,-1.77c-5.126,-0.69 -6.379,-0.51 -11.637,-0.09c-3.142,0.15 -5.512,-0.11 -8.151,1.5z"/>

<path transform="translate(0,0)" fill="rgb(24,48,84)" d="M851.142,1114.3c3.406,-0.03 6.316,-0.54 8.99,1.29c8.249,12.27 20.914,-1.48 19.239,20.97l5.566,-2.59l0.182,-0.67c-1.061,-9.95 -2.014,-7.28 2.231,-15.22c-6.09,-4.07 -20.587,0.98 -24.255,-3.03c-4.971,-4.97 -9.885,0.62 -10.04,-8.57c-0.065,-3.81 -1.018,-4.99 -3.264,-7.77z"/>
<path transform="translate(0,0)" fill="rgb(95,126,167)" d="M821.083,1147.07c3.308,1.79 8.967,0.81 12.676,0.36c2.708,-0.28 5.078,-0.14 7.112,-1.77c-5.126,-0.69 -6.379,-0.51 -11.637,-0.09c-3.142,0.15 -5.512,-0.11 -8.151,1.5z"/>
<path transform="translate(0,0)" fill="rgb(3,33,69)" d="M1162.1,1188.18c0.55,3.98 -0.55,14.4 1.45,16.74l2.19,-0.26c-0.3,-14.11 4.55,-72.49 0.29,-80.62c-2.28,-0.73 -3.44,-1.17 -5.83,-1.54c-0.69,22.12 -1.09,43.75 1.9,65.68z"/>
<path transform="translate(0,0)" fill="rgb(3,33,69)" d="M1161.73,1094.35c2.3,0.66 2.33,0.69 4.76,1.03c0.46,-7.03 2.3,-19.4 -1.45,-24.74c-2.14,-0.79 -2.37,-0.97 -4.59,-1.39c-0.4,6.61 -2.44,20.28 1.28,25.1z"/>
<path transform="translate(0,0)" fill="rgb(7,23,56)" d="M856.566,1169.2c2.621,1.29 3.71,0.95 6.669,0.87c0.317,-4.85 1.338,-10.6 -0.616,-14.74c-3.093,-2.3 -2.81,-1.5 -7.629,-1.55c-0.213,5.09 -1.347,11.65 1.576,15.42z"/>
<path transform="translate(0,0)" fill="rgb(46,77,115)" d="M1484.75,1261.73c0.58,-11.34 0.17,-24.47 0.08,-35.95c-4.08,-0.96 -6.39,-1.24 -10.58,-1.71c-0.18,-2.5 -0.57,-4.29 0.37,-6.6c4.48,-0.28 5.54,0.44 6.8,-3.86c-2.47,-14.88 -33.02,-46.06 -48.82,-43.71l0.8,0.94c3.19,0.34 7.91,2.65 9.66,5.45c-21.28,-8.06 -29.3,-10.53 -51.84,-6.6l-0.94,-1.82c-4.79,1.51 -8.05,4.54 -11.19,4.12l-1.6,-1.64c2.6,-1.13 10.39,-3.14 11.41,-3.77c-9.92,-0.04 -19.32,4.67 -27.5,9.96c-6.36,-17.88 -10.18,-32.86 -17.62,-52.35c10.18,-4.99 20.03,-10.73 29.91,-15.56c3.48,2.91 6.99,5.79 10.53,8.64c11.19,-2.21 21.49,-2.4 31.54,-8.41c9.18,-5.5 18.23,-11.04 27.66,-16.12c21.08,11.78 42.03,23.79 62.86,36.01l22.79,-11.77c13.85,6.43 34.64,15.21 47.58,22.08c-25.33,44.61 -56.21,85.83 -91.9,122.67z"/>
<path transform="translate(0,0)" fill="rgb(95,126,167)" d="M1545.27,1061.21l20.61,-8.22c6.35,4.16 37.9,23.74 40.65,27.87l-2.68,5.03l-1.64,0.1c-3.05,4.9 -6.77,10.44 -5.77,16.28c-3.39,7.77 -14.97,30 -19.79,36.79c-12.94,-6.87 -33.73,-15.65 -47.58,-22.08l-22.79,11.77c-20.83,-12.22 -41.78,-24.23 -62.86,-36.01c-9.43,5.08 -18.48,10.62 -27.66,16.12c-10.05,6.01 -20.35,6.2 -31.54,8.41c-3.54,-2.85 -7.05,-5.73 -10.53,-8.64c-9.88,4.83 -19.73,10.57 -29.91,15.56c-3.18,-6.66 -6.45,-13.35 -9.34,-20.13c-0.06,-8 -8.13,-19.37 -12.4,-26.04c7.39,-2.78 16.94,-7.21 24.39,-10.39l16.88,9.46c47.19,24.19 74.4,-8.64 117.62,3.01c-1.97,-2.46 -2.35,-2.94 -3.96,-5.82c0.55,-4.22 2.01,-4.9 4.86,-8.62l-5.91,-9.7c4.87,-11 7.23,-19.94 10.17,-31.53c6.46,2.25 50.54,31.15 59.18,36.78z"/>
<path transform="translate(0,0)" fill="rgb(46,77,115)" d="M1486.09,1024.43c-2.94,11.59 -5.3,20.53 -10.17,31.53l5.91,9.7c-2.85,3.72 -4.31,4.4 -4.86,8.62c1.61,2.88 1.99,3.36 3.96,5.82c-43.22,-11.65 -70.43,21.18 -117.62,-3.01c11.18,-7.32 24.68,-15.46 36.27,-22.12c-3.7,10.07 -7.73,19.91 -9.46,30.52c7.79,-4.22 30.35,-17.3 36.95,-22.81c7.65,-2.34 48.45,-31.89 59.02,-38.25z"/>
<path transform="translate(0,0)" fill="rgb(95,126,167)" d="M1390.12,1085.49c7.79,-4.22 30.35,-17.3 36.95,-22.81c-7.06,-2.9 -14.8,-6.15 -21.99,-8.9c-2.95,-1.12 -3.48,-0.16 -5.5,1.19c-3.7,10.07 -7.73,19.91 -9.46,30.52z"/>
<path transform="translate(0,0)" fill="rgb(46,77,115)" d="M1603.85,1085.89l-1.64,0.1c-3.05,4.9 -6.77,10.44 -5.77,16.28c2.86,-5.68 4.95,-10.52 7.41,-16.38z"/>

<path transform="translate(0,0)" fill="rgb(95,126,167)" d="M1286.21,1172.2c4.16,1.72 9.7,3.81 13.63,5.76c3.36,-11.28 7.25,-22.96 10.83,-34.21c-6.85,-1.1 -20.43,-2.61 -25.17,-7.31l1.17,-0.81c7.44,-0.38 14.76,1.83 22.04,3.6c-8.43,-13.44 -17.3,-30.03 -26.76,-42.43c0.67,24.98 3.66,50.68 4.26,75.4z"/>
<path transform="translate(0,0)" fill="rgb(95,126,167)" d="M1300.93,1070.27c0.67,17.15 7.15,43.14 8.66,63.05c-3.11,-5.19 -24.77,-42.31 -27.12,-45c-0.33,2.27 -0.63,4.55 -0.9,6.82c-0.76,-3.82 -1.24,-33.78 -1.82,-41.52c3.41,2.72 5,3.81 8.77,6c6.02,4.13 7.35,5.41 12.41,10.65z"/>
<path transform="translate(0,0)" fill="rgb(95,126,167)" d="M1337.98,1205.12c2.09,-4.82 3.42,-8.69 6.66,-12.82c-2.75,-5.27 -2.67,-29.98 -2.77,-37.17c-8.84,-3.39 -17.64,-6.89 -26.4,-10.49c7.88,20.02 15.39,40.18 22.51,60.48z"/>
<path transform="translate(0,0)" fill="rgb(230,236,243)" d="M1288.52,1059.62c-3.77,-2.19 -5.36,-3.28 -8.77,-6l1.16,-2.71c1.22,0.77 8.18,5.23 9.23,5.61z"/>
<path transform="translate(0,0)" fill="rgb(24,48,84)" d="M1280.91,1050.91c1.22,0.77 8.18,5.23 9.23,5.61c-0.95,-2.7 -3.17,-4.8 -5.1,-7.02z"/>
<path transform="translate(0,0)" fill="rgb(24,48,84)" d="M1334.44,1104.06c-0.06,-8 -8.13,-19.37 -12.4,-26.04l-1.39,0.05c4.34,8.27 9.15,18.02 13.79,25.99z"/>
<path transform="translate(0,0)" fill="rgb(95,126,167)" d="M1314.37,1140.14c8.79,3.6 17.4,7.07 25.99,11.14c-5.29,-14.68 -24.22,-56.06 -33.54,-67.52c1.72,18.22 6.4,39.3 7.55,56.38z"/>
<path transform="translate(0,0)" fill="rgb(95,126,167)" d="M1155.29,962.646c-0.03,-1.759 1.06,-7.462 1.41,-9.52c9.37,8.293 72.35,69.674 75.64,70.544c-2.91,-10.86 -53.91,-56.537 -65.12,-66.956c8.2,2.793 15.24,6.151 23.07,9.753c9.87,5.085 19.37,9.916 28.97,15.514c2.67,5.507 10.83,23.209 13.82,27.459c-0.83,24.2 -2.96,59.96 -5.1,84.2c-3.06,4.72 -7.32,19.3 -9.26,25.34c-8.17,-13.31 -22.5,-35.93 -31.81,-47.46l-0.04,-18.56c-8.93,-11.46 -7.16,-13.03 -22.1,-16.2c-0.66,-7.36 -2.18,-12.51 -2.54,-20.47c15.03,2.64 58.23,14.94 67.5,14.94l0.43,-0.9c-9.81,-6.56 -54.59,-16.55 -68.42,-18.99c-1.34,-12.064 -0.48,-24.342 -2.22,-37.575l-0.7271,1.91035l-0.4729,0.24965l-0.62,-4.531c-1.48,1.148 0.07,5.064 -1.48,8.29c0.14,-6.016 0.7,-11.293 -0.93,-17.038z"/>

<path transform="translate(0,0)" fill="rgb(46,77,115)" d="M1156.22,979.684c1.55,-3.226 0,-7.142 1.48,-8.29l0.62,4.531l0.4729,-0.24965l0.7271,-1.91035c1.74,13.233 0.88,25.511 2.22,37.575l0.49,4.95c0.36,7.96 1.88,13.11 2.54,20.47l-2.92,1.16c-0.56,-5.67 -3.44,-47.197 -4.73,-49.011l-1.23,2.448c-0.19,-3.793 0.14,-7.85 0.33,-11.673z"/>
<path transform="translate(0,0)" fill="rgb(46,77,115)" d="M757.706,1153.06c-0.009,14.86 -7.914,4.2 -7.107,20.7l-0.199,8.44c-1.28,5.1 -3.864,5.13 -5.862,8.48c0.318,6.99 0.02,45.26 1.693,48.11l-2.624,0.38c-0.997,-7.01 -0.78,-23.49 0.157,-30.43c-14.631,-12.09 -53.897,-13.4 -73.137,-11.82c-4.727,-16.63 -9.109,-33.92 -13.604,-50.66l0.386,-1.76c5.245,-3.08 77.569,-14.76 88.128,-16.18c-11.117,22.22 -21.867,44.63 -32.246,67.21l0.406,0.75c4.174,-4.59 29.771,-56.7 33.403,-65.07c2.867,2.24 8.641,17.3 10.606,21.85z"/>
<path transform="translate(0,0)" fill="rgb(230,236,243)" d="M713.291,1195.53l0.406,0.75c4.174,-4.59 29.771,-56.7 33.403,-65.07c-1.137,-1.39 -0.859,-1.17 -1.563,-2.89c-11.117,22.22 -21.867,44.63 -32.246,67.21z"/>
<path transform="translate(0,0)" fill="rgb(230,236,243)" d="M655.214,1148.51c3.602,12.16 8.978,38.47 12.758,48.37l2.655,0.04c-4.727,-16.63 -9.109,-33.92 -13.604,-50.66z"/>
<path transform="translate(0,0)" fill="rgb(95,126,167)" d="M509.986,1156.19c27.53,-0.8 23.094,-5.63 43.882,-13.21c22.502,10.49 30.167,16.56 54.956,19.86l2.021,-0.95c1.572,-8.9 5.82,-18.63 9.168,-27.15c-14.823,-5.38 -27.403,-11.85 -41.419,-18.92l-22.031,8.72c-15.156,-7.79 -33.887,-19.46 -48.903,-28.23l-10.4,4.57c2.755,22.47 4.97,33.75 12.726,55.31z"/>


<path transform="translate(0,0)" fill="rgb(24,48,84)" d="M1233.01,976.139c-0.01,5.178 0.3,12.766 -0.77,17.615l3.95,-0.043l-1.05,-18.494z"/>
<path transform="translate(0,0)" fill="rgb(3,33,69)" d="M1202.78,891.758c-1.69,5.322 2,8.997 6.84,10.718c7.57,-1.05 16.05,-4.739 21.67,-5.407c11.51,-1.364 26.28,-1.278 37.95,-1.103c4.88,0.576 9.21,1.128 14,2.224c8.03,1.838 21.85,9.188 24.44,-3.784c-5.58,-13.651 -50.74,-13.838 -63.49,-12.982c-11.12,0.694 -33.19,2.127 -41.41,10.334z"/>
<path transform="translate(0,0)" fill="rgb(95,126,167)" d="M751.369,1127.2c23.994,-2.53 48.051,-4.44 72.144,-5.72c-0.02,8.83 -2.741,10.88 -8.176,17.9l-0.103,-0.7c-0.213,14.27 -0.977,38.25 -0.226,52.31l-11.223,0.38c-1.154,-4.66 -18.848,2.12 -25.127,-2.87l-0.151,-3.34l1.387,-1.13l2.795,2.71c0.456,-2.46 -5.447,-44.39 -7.481,-46.48c-1.827,-0.69 -6.214,-1.59 -8.324,-2.08l3.618,-0.85l-1.17,0.07l-0.912,-0.77c-6.043,1.92 -7.264,4.37 -8.52,10.7c-2.183,-6.44 -5.708,-13.82 -8.531,-20.13z"/>
<path transform="translate(0,0)" fill="rgb(7,23,56)" d="M782.689,1186.74l-2.795,-2.71l-1.387,1.13c-1.426,2.58 -1.549,4.55 -2.05,7.43c-0.185,-9.01 2.006,-30.12 -1.781,-38.11c-0.433,-0.91 -3.484,-1.22 -4.85,-1.5l-0.041,-0.47c2.265,-0.16 1.934,-0.16 4.136,-0.77c1.907,-2.76 1.24,-7.93 1.287,-11.48c2.034,2.09 7.937,44.02 7.481,46.48z"/>
<path transform="translate(0,0)" fill="rgb(230,236,243)" d="M767.634,1151.28l2.151,1.23c2.265,-0.16 1.934,-0.16 4.136,-0.77c1.907,-2.76 1.24,-7.93 1.287,-11.48c-1.827,-0.69 -6.214,-1.59 -8.324,-2.08c-0.063,3.85 -0.565,9.74 0.75,13.1z"/>

<path transform="translate(0,0)" fill="rgb(95,126,167)" d="M1188.12,1183.68l26.91,-56.44c-9.12,-1.07 -18.78,-2.03 -27.77,-3.67c1.94,15.59 0.1,43.14 0.86,60.11z"/>
<path transform="translate(0,0)" fill="rgb(95,126,167)" d="M1187.26,1123.57l1,-3.04c4.12,-2.34 20.54,0.94 26.14,1.81c-8,-14.57 -17.89,-28.59 -27.25,-42.36z"/>
<path transform="translate(0,0)" fill="rgb(88,119,161)" d="M1198.7,1171.82c-1.9,4.12 -8.65,20.36 -10.59,23.23l-0.01,39.05c5.21,2.26 5.88,2.67 10.1,6.46c1.48,-14.63 -0.06,-29.3 1.36,-43.1c1.05,-10.16 15.22,-19.51 24.32,-24.38c0.21,-10.03 3.07,-35.26 1.57,-43.45c-0.15,3.59 0.32,6.28 -1.36,9.04c-2.42,-2.27 -4.16,-6.53 -5.69,-9.61c-6.27,14.26 -13.17,28.61 -19.7,42.76z"/>
<path transform="translate(0,0)" fill="rgb(95,126,167)" d="M1313.21,1148c4.7,12.86 16.89,53.45 22.43,63.03l-2.74,2.84c1.81,4.49 3.37,5.56 2.76,9.54c-1.93,2.61 -2.06,2.32 -5.23,3.34l-0.15,1.11c-1.03,8.42 2.03,20.62 -2.77,24.66c-3.03,0.32 -3.93,0.24 -6.9,0.09c-0.09,-6.3 1.15,-25.43 -0.84,-30.07l-2.78,-0.53c-5.21,-4.51 0.89,-10.31 3,-13.91c0.87,-1.46 0.07,-8.47 -0.12,-10.56c-5.66,-9.04 -7.83,-11.76 -16.37,-18.04c3.34,-10.34 6.98,-21.02 9.71,-31.5z"/>


<path transform="translate(0,0)" fill="rgb(191,190,193)" d="M1240.24,872.966l26.05,-0.184l3.66,2.275l-29.88,-0.145z"/>
<path transform="translate(0,0)" fill="rgb(24,48,84)" d="M1266.29,872.782l3.66,2.275c4.53,0.026 6.21,0.053 10.64,0.762l-0.98,-3.476c-4.88,-0.141 -8.5,-0.486 -13.32,0.439z"/>
<path transform="translate(0,0)" fill="rgb(24,48,84)" d="M1066.23,1234.66c16.98,1.47 60.75,-2.18 75.34,1.1c-18.12,0.69 -40.08,0.13 -58.5,0.12l-114.275,-0.02l-61.44,0.13c-8.843,0.02 -25.986,0.47 -34.138,-0.59c3.31851,-1.5834 18.84595,-1.94068 39.50106,-1.77334l0.52594,0.41334c0.88353,-0.12907 1.73049,-0.2454 2.51929,-0.38532c51.1218,0.52399 130.22769,3.91759 137.12671,0.25532c4.16,-1.11 6.47,-0.78 10.83,-0.66c1.66,1.79 0.54,1.24 2.51,1.41z"/>

<path transform="translate(0,0)" fill="rgb(88,119,161)" d="M1352.6,1211.78c-0.99,-2.02 -0.27,-2.54 0.46,-5.41c-6.59,-0.24 -10.85,-1.85 -15.36,3.33l0.4,1.24c11.41,1.74 131.85,4.02 138.69,1.44l-0.1,-1.19c-4.96,1.98 -111.19,1.15 -124.09,0.59z"/>
<path transform="translate(0,0)" fill="rgb(73,105,144)" d="M1323.43,1267.26c4.3,-0.23 4.48,0.56 6.68,-1.73c1.24,-8.33 1,-30.1 0.32,-38.78l-0.15,1.11c-1.03,8.42 2.03,20.62 -2.77,24.66c-3.03,0.32 -3.93,0.24 -6.9,0.09c-0.08,4.85 -1.44,12.02 2.82,14.65z"/>
<path transform="translate(0,0)" fill="rgb(88,119,161)" d="M1063.72,1233.25c0.16,-3.72 0.82,-6.58 -1.16,-9.54c-3.68,-2.42 -1.82,-2.1 -5.59,-1.79c-5.5,4.06 -4.3,5.11 -4.08,11.99c4.16,-1.11 6.47,-0.78 10.83,-0.66z"/>
<path transform="translate(0,0)" fill="rgb(88,119,161)" d="M743.607,1239.17c0.258,7.7 0.178,18.28 1.213,25.59l0.918,0.45c2.59,-5.27 4.291,-22.59 0.493,-26.42z"/>
<path transform="translate(0,0)" fill="rgb(230,236,243)" d="M1237,1224.05c-8.46,-0.07 -28.04,-0.92 -35.24,1.08l0.62,0.83c11.12,1.47 24.56,0.66 36.08,0.91z"/>
<path transform="translate(0,0)" fill="rgb(230,236,243)" d="M869.875,1235.98c-7.273,-0.14 -23.176,-1.43 -28.83,1.44l-0.429,1.04c5.386,1.02 20.07,-0.65 27.286,-0.29z"/>
<path transform="translate(0,0)" fill="rgb(24,48,84)" d="M750.4,1182.2c0.653,2.67 2.072,2.42 3.175,6.13c3.111,-4.56 4.309,-13.23 -2.976,-14.57z"/>
<path transform="translate(0,0)" fill="rgb(95,126,167)" d="M1124.91,661.546c59.43,-33.676 128.24,-47.014 195.94,-37.985c80.38,11.203 155.85,57.359 204.27,122.238c44.7,58.877 65.94,132.253 59.62,205.904l-0.67,-0.08c-1.84,-1.88 -1.53,-4.836 -1.96,-8.146c-1.42,-47.459 -25.35,-104.657 -51.98,-144.2c-49.05,-72.85 -135.68,-132.021 -222,-148.974c-73.39,-14.416 -160.74,-1.123 -223.21,40.762l-1.77,-1.012c14.66,-11.022 25.68,-19.332 41.76,-28.507z"/>


<path transform="translate(0,0)" fill="rgb(7,23,56)" d="M1260,1005.99l3.34,148.42c1.15,4.81 0.94,12.11 2.16,14.29c2,-9.66 -0.22,-45.97 -0.36,-57.2l-3.32,-186.823c-2.33,-3.084 -0.92,-2.672 -2.13,-6.159c0.26,5.054 -0.37,15.684 -0.93,20.985c-0.6,21.697 0.77,44.692 1.24,66.487z"/>

<path transform="translate(0,0)" fill="rgb(3,33,69)" d="M1288.98,329.169c0.37,2.4 0.59,3.883 0.33,6.295c-5.4,5.537 -16.43,13.853 -17.47,20.399c1.6,3.289 0.45,1.827 4.23,3.918c2.43,-0.368 1.62,-0.028 3.64,-1.525c3.54,-3.387 14.01,-14.931 17.47,-17.48c0.68,-0.5 3.14,0.753 7.29,-2.061c4.21,-8.207 -2.06,-13.01 -9.5,-14.945c-2.75,1.757 -4.57,2.49 -5.99,5.399z"/>



<path transform="translate(0,0)" fill="rgb(24,48,84)" d="M1396.3,1250.94c5.19,3.4 12.84,1.43 19.61,1.28c0.04,-5.08 0.87,-6.11 -1.47,-10.06c-5.47,-2.89 -12.5,-1.14 -19.41,-1.19c-0.16,3.91 -0.86,6.9 1.27,9.97z"/>









<path transform="translate(0,0)" fill="rgb(95,126,167)" d="M718.096,1301.1l14.157,-0.57c6.918,0.09 15.678,1.35 20.572,-3.32c0.284,-5.3 -7.193,-8.99 -11.346,-8.39c-9.068,6.46 -12.793,8.58 -23.383,12.28z"/>




<path transform="translate(0,0)" fill="rgb(95,126,167)" d="M1097.19,1233.12c2.96,1.47 5.46,0.95 8.83,0.79c0.05,-3.5 0.65,-7.85 -1.29,-10.44c-2.88,-1.38 -5.31,-0.89 -8.55,-0.73c-0.16,3.53 -0.89,7.7 1.01,10.38z"/>
<path transform="translate(0,0)" fill="rgb(95,126,167)" d="M974.167,1232.84c2.95,1.55 5.298,1.05 8.686,0.9c0.092,-3.53 0.735,-7.7 -1.166,-10.39c-2.818,-1.47 -5.134,-1.01 -8.367,-0.9c-0.218,3.6 -0.974,7.5 0.847,10.39z"/>

<path transform="translate(0,0)" fill="rgb(88,119,161)" d="M1124.23,1232.64c2.93,1.15 4.56,0.8 7.69,0.63c-0.1,-4.52 0.61,-6.83 -1.55,-10.19c-3.16,-1.03 -3.83,-0.78 -7.12,-0.65c-0.18,4.64 -1.02,6.57 0.98,10.21z"/>

<path transform="translate(0,0)" fill="rgb(73,105,144)" d="M1415.58,1215.91c3.31,-0.21 1.61,-0.45 5.07,1.86c0.83,2.4 1.1,3.54 1.63,6.04c-4.6,0.18 -5.55,0.17 -10.04,-0.79c1.1,-5.17 0.07,-4.1 3.34,-7.11z"/>
<path transform="translate(0,0)" fill="rgb(7,23,56)" d="M1412.24,1223.02l-0.88,1.77l-1.84,0.55c4.02,2.25 10.07,0.73 14.5,-0.24l-1.74,-1.29c-4.6,0.18 -5.55,0.17 -10.04,-0.79z"/>
<path transform="translate(0,0)" fill="rgb(88,119,161)" d="M912.137,1233.17l1.107,0.87c5.75,-0.84 9.951,-1.14 6.651,-10.92c-0.363,-0.43 -0.726,-0.86 -1.089,-1.29c-5.224,2.43 -8.835,4.96 -6.669,11.34z"/>
<path transform="translate(0,0)" fill="rgb(230,236,243)" d="M1238.43,1191.96c-7.41,-0.33 -23.5,-1.31 -29.9,1.02c6.06,1.82 22.57,1.48 29.75,1.48z"/>
<path transform="translate(0,0)" fill="rgb(230,236,243)" d="M1254.6,1175.13c-5.69166,0.11036 -17.85259,-0.12728 -25.44537,1.36423l1.28537,3.04577c3.62,-0.32 16.75,-1.05 19.13,-1.72c1.4,-1.93 2.3,-1.7 5.03,-2.69zM1229.06,1176.27l0.02332,0.23832c0.02372,-0.00471 0.04749,-0.00941 0.07131,-0.01409zM1229.08332,1176.50832c-0.31223,0.06201 -0.61661,0.12699 -0.91237,0.19506l1.20905,2.83662zM1228.08,1176.49l0.0161,0.23072c0.02489,-0.0058 0.04984,-0.01158 0.07485,-0.01734zM1228.0961,1176.72072c-0.48404,0.11283 -0.94458,0.23409 -1.37818,0.36442l1.02208,2.38486l0.55,0.03zM1226.63,1176.88l-1.59802,0.82241c0.50004,-0.22562 1.0654,-0.43074 1.68594,-0.61727zM1225.03198,1177.70241c-0.28599,0.12904 -0.55061,0.26478 -0.79198,0.40759z"/>


<path transform="translate(0,0)" fill="rgb(95,126,167)" d="M1295.73,1220.11c3,1.25 3.67,1 6.91,1c-0.01,-4.22 0.73,-6.29 -1.33,-9.3c-2.86,-0.58 -3.12,-0.55 -6.06,-0.49c-0.47,4.86 -1.29,5.07 0.48,8.79z"/>
<path transform="translate(0,0)" fill="rgb(88,119,161)" d="M1252.29,1212.63l2.41,-1.13c3.83,1.5 2.39,0.32 4.71,3.38c0.1,1.02 0.33,4.5 0.52,5.29l-8.58,1.28c-0.32,-5.32 -1.06,-4.64 0.94,-8.82z"/>

<path transform="translate(0,0)" fill="rgb(88,119,161)" d="M1272.31,1220.25c2.83,0.5 3.53,0.57 6.4,0.62c0.01,-4.55 0.84,-5.45 -1.27,-8.38c-2.86,-0.59 -3.46,-0.62 -6.4,-0.71c0.01,4.59 -0.77,5.25 1.27,8.47z"/>


<path transform="translate(0,0)" fill="rgb(176,193,217)" d="M1254.42,736.26l1.48,6.32c0.22,-10.907 -0.25,-18.46 -1.41,-29.361c-0.89,10.793 -1.91,22.508 -1.37,33.302c0.86,-3.335 1.01,-6.819 1.3,-10.261z"/>



<path transform="translate(0,0)" fill="rgb(73,105,144)" d="M1582.92,968.248l1.82,-16.545l-0.67,-0.08c-1.84,-1.88 -1.53,-4.836 -1.96,-8.146c-0.12,9.02 -0.32,15.757 0.81,24.771z"/>
<path transform="translate(0,0)" fill="rgb(24,48,84)" d="M786.488,1295.62c3,1.23 8.709,0.49 12.213,0.3l0.613,-1.28c-4.27,-0.95 -7.408,-0.54 -11.737,-0.33z"/>
<path transform="translate(0,0)" fill="rgb(73,105,144)" d="M1074.93,697.739c4.28,-1.845 6.4,-3.833 9.99,-6.674l-1.77,-1.012c-3.02,2.406 -6.49,4.529 -8.22,7.686z"/>
<path transform="translate(0,0)" fill="rgb(7,23,56)" d="M1251.35,1221.45l0.67,0.95c4.22,0.33 6.86,1.29 10.07,-0.47c-0.61,-0.46 -1.71,-1.23 -2.16,-1.76z"/>
<path transform="translate(0,0)" fill="rgb(3,33,69)" d="M1227.57,1297.74c15.29,0.8 32.9,4.28 49.25,5.18c50.92,2.8 106.55,7.31 157.31,7.29c4.27,-3.98 8.56,-7.93 12.88,-11.86c4.32,-4.17 9.06,-8.39 13.52,-12.47c-79.3,-2.75 -159.92,1.17 -239.33,-1.15c0,0 -3.74,-3.15 -4.09,-3.45c3.13,6.23 6.48,10.76 10.46,16.46zM1331.76,1288.05c5.36,-0.45 18.67,1.47 21.44,6.21c-9.3,1.42 -18.35,5.08 -21.44,-6.21z"/>
<path transform="translate(0,0)" fill="rgb(73,105,144)" d="M1353.2,1294.26c-2.77,-4.74 -16.08,-6.66 -21.44,-6.21c3.09,11.29 12.14,7.63 21.44,6.21z"/>
<path transform="translate(0,0)" fill="rgb(3,33,69)" d="M1269.84,1278.09c2.88,1.6 4.71,1.23 8.03,1.19c0.03,-6.78 0.78,-43.4 -0.89,-46.67c-3.77,-0.94 -3.95,-0.84 -7.66,-0.81c-0.01,7.64 -0.6,40.18 0.52,46.29z"/>
<path transform="translate(0,0)" fill="rgb(7,23,56)" d="M1456.83,1252.84c3.18,2.82 3.75,2.41 8.86,2.31c0.34,-5.02 1.45,-11.23 -0.58,-15.47c-3.72,-2.5 -3.3,-1.62 -8.74,-1.63c-0.34,4.89 -1.31,10.49 0.46,14.79z"/>
<path transform="translate(0,0)" fill="rgb(226,155,40)" d="M1029.08,1273.05l-0.02,38.06l-33.015,-0.07l-0.08,-38.07c11.035,0.14 22.075,0.16 33.115,0.08z"/>

<path transform="translate(0,0)" fill="rgb(95,126,167)" d="M913.994,1303.07l-17.75,-0.06c-0.012,-7.78 0.507,-21.9 -1.033,-28.76c-2.398,-1.15 -2.562,-0.78 -5.284,-0.28c-6.904,5.94 -3.588,20.16 -3.864,29.34c-9.924,0.16 -11.01,-0.66 -17.004,7.7l21.083,0.21c20.066,-0.05 55.824,0.97 74.768,-0.62c-12.954,-1.8 -27.216,-2.67 -39.598,-4.59c0.028,-6.1 0.603,-28.52 -0.827,-32.52c-3.823,-0.59 -4.374,-0.6 -8.261,-0.49c-3.752,4.93 -2.217,22.62 -2.23,30.07z"/>
<path transform="translate(0,0)" fill="rgb(95,126,167)" d="M1102.06,1307.04c-0.01,-9.07 -2.14,-26.12 1.32,-32.12c4.98,-3.12 7.44,-1.65 13.59,-0.44l0.03,29.24l15.26,-0.27c0.03,-6.33 -1.04,-25.38 2.82,-29.1c10.85,0.75 3.76,22.13 7.11,28.59c0.52,1.01 8.42,1.62 8.19,6.5l-0.05,1.09c-4.06,1.28 -47.03,0.52 -53.48,0.44l-3.63,-2.58z"/>

<path transform="translate(0,0)" fill="rgb(88,119,161)" d="M1096.85,1310.97l-3.63,-2.58c-5.29,0.69 -10.42,1.28 -15.65,2.42c6.33,0.11 13,0.35 19.28,0.16z"/>
<path transform="translate(0,0)" fill="rgb(3,33,69)" d="M413.109,1408.15l49.8,0.01l0.028,203.83l-49.968,0.04l-0.081,-89.12l0.065,-46.84l-93.642,105.48c-30.843,-35.09 -64.755,-70.56 -94.677,-105.78c-0.877,44.77 -0.089,91.21 -0.319,136.2l-48.787,0.06l0.095,-203.88l51.119,-0.01l92.557,101.99z"/>
<path transform="translate(0,0)" fill="rgb(3,33,69)" d="M956.245,1408.35c22.706,-0.82 48.315,-0.26 71.195,-0.26l126.8,0.02c-10.57,14.58 -20.99,29.25 -31.27,44.02l-107.32,0.03c-16.87,0 -33.815,-0.15 -50.673,0.04c-20.515,0.23 -24.477,29.91 -4.311,33.93c10.383,2.07 21.912,1.29 32.552,1.26l70.042,-0.22c14.72,-0.04 30.07,-0.95 44.7,1.45c46.76,7.68 64.81,63.77 37.8,100.21c-11.35,15.31 -26.37,20.86 -44.6,23.11l-201.505,0.02c7.537,-10.88 23.513,-35.25 31.878,-44.79l106.687,0.11c16.9,0 33.62,0.33 51.05,0.16c22.3,-0.22 30.22,-24.99 9.43,-34.22c-5.49,-2.44 -25.21,-1.55 -32.43,-1.52l-69.959,0.25c-13.825,0.04 -35.773,0.91 -48.564,-1.82c-9.075,-1.88 -17.612,-5.78 -24.98,-11.4c-31.895,-24.52 -30.121,-79.52 4.205,-100.99c9.866,-6.17 17.897,-8.1 29.273,-9.39z"/>
<path transform="translate(0,0)" fill="rgb(3,33,69)" d="M664.488,1408.33c22.138,-0.82 47.655,-0.23 70.003,-0.23l127.208,0.03l-31.819,43.94l-109.048,0.04c-15.893,0 -32.386,-0.19 -48.295,0.03c-4.684,0.06 -10.114,2.94 -13.023,6.76c-3.14,4.22 -4.4,9.54 -3.482,14.71c3.161,17.55 26.867,13.78 40.558,13.75l71.815,-0.2c12.649,-0.03 34.309,-0.71 46.03,1.41c9.113,1.57 17.772,5.11 25.372,10.38c13.246,9.5 22.114,23.93 24.607,40.03c6.314,40.15 -17.334,67.45 -56.759,72.92c-65.023,1.29 -134.181,0.07 -199.541,0.06c9.376,-14.46 21.222,-30.54 31.222,-44.72l103.563,0.08c20.119,0.01 42.872,0.49 62.666,-0.47c12.799,-8.23 17.207,-25.34 1.017,-33.2c-6.05,-2.93 -25.199,-1.94 -32.82,-1.92l-68.912,0.21c-12.875,0.04 -35.299,0.84 -47.22,-1.57c-9.957,-1.92 -19.335,-6.11 -27.403,-12.25c-32.616,-25.32 -29.664,-82.3 7.524,-101.87c9.69,-5.1 15.938,-6.64 26.737,-7.92z"/>
<path transform="translate(0,0)" fill="rgb(3,33,69)" d="M1633.83,1408.12h56.45c44.74,48.04 95.69,95.58 141.4,144.04l0.02,-144.02l47.29,-0.01l-0.01,202.6c-2.34,2.27 -51.91,1.35 -59.41,1.33c-45.01,-44.53 -93.99,-96.48 -137.8,-142.48l-0.1,142.4l-48.01,0.13z"/>
<path transform="translate(0,0)" fill="rgb(3,33,69)" d="M1398.19,1408.39c3.35,-0.14 6.71,-0.24 10.07,-0.3c18.3,-0.33 37.56,0.38 55.71,0.11c38.78,-0.58 67.42,-3.22 97.51,26.11c21.31,20.77 28.35,45.63 28.59,74.72l-49.09,0.01c-0.55,-27.16 -9.16,-43.33 -35.92,-52.13c-10.05,-1.96 -95.12,-1.91 -105.79,0.07c-7.78,1.36 -15.07,4.73 -21.15,9.77c-14.02,11.76 -15.82,25.57 -16.92,42.25l-49.37,0.03c-0.29,-52.67 32.74,-95.26 86.36,-100.64z"/>
<path transform="translate(0,0)" fill="rgb(3,33,69)" d="M1540.01,1524.68l50.21,0.05c-2.09,15.04 -3.82,23 -9.95,36.74c-3.14,5.99 -6.85,11.66 -11.08,16.94c-31.68,38.85 -72.48,33.98 -117.45,33.59c-38.08,-0.34 -75.7,5.56 -107.22,-21.42c-20.97,-17.95 -29.59,-38.73 -32.2,-65.81l49.41,-0.1c1.63,8.1 3.14,13.9 7.97,20.97c6.74,9.8 17.1,16.51 28.8,18.65c26.5,5.03 75.15,-0.58 103.64,0.33c19.75,0.63 34.46,-21.82 37.87,-39.94z"/>
<path transform="translate(0,0)" fill="rgb(46,77,115)" d="M426.952,1666.23c11.346,-0.83 27.147,-0.43 38.724,-0.43l66.126,0.09c-6.159,8.28 -12.862,18.53 -18.785,27.17c-22.03,0.28 -44.124,-0.3 -66.355,-0.23c-15.921,0.06 -35.556,2.9 -35.484,23.42c0.064,18.42 -5.014,47.99 21.213,49.67c22.715,1.45 47.838,0.59 70.86,0.54l-0.034,-22.92c-7.263,-0.33 -43.027,0.94 -46.597,-1.57c0.172,-9.21 0.219,-15.93 -0.471,-25.07l73.94,-0.03c0.363,25.51 0.111,51.64 0.146,77.2c-27.711,-0.3 -55.521,0.21 -83.239,0.08c-8.308,-0.04 -15.83,0.13 -24.059,-1.34c-6.983,-1.18 -13.647,-3.78 -19.573,-7.66c-9.244,-6.15 -18.379,-19.29 -19.332,-30.56c-3.387,-40.05 -6.013,-78.82 42.92,-88.36z"/>
<path transform="translate(0,0)" fill="rgb(3,33,69)" d="M514.02,1408.11l48.313,-0.01l-0.042,203.91l-48.298,0.01z"/>
<path transform="translate(0,0)" fill="rgb(3,33,69)" d="M1209.31,1408.13l47.87,-0.02l-0.03,203.88h-47.89z"/>
<path transform="translate(0,0)" fill="rgb(46,77,115)" d="M1429.74,1665.87l34.68,-0.06c-18.22,20.1 -35.55,42.39 -53.5,63.03c15.76,20.37 36.24,43.67 52.91,63.75l-1,1.43l-32.35,0.04c-11.14,-14.6 -24.82,-30.61 -36.55,-45.01c-11.69,13 -25.57,31.14 -36.96,44.99l-33.62,-0.01l53.76,-65.08l-53.36,-63.06l34.39,-0.02c12.04,14.23 23.98,28.53 35.84,42.91z"/>
<path transform="translate(0,0)" fill="rgb(46,77,115)" d="M606.903,1794.06l31.195,0.05c15.973,-30.86 35.788,-64.71 52.951,-95.2l4.268,7.43l48.463,87.81l31.028,-0.09l-71.023,-128.21l-24.882,0.09c-24.321,42.53 -48.322,85.23 -72,128.12z"/>
<path transform="translate(0,0)" fill="rgb(46,77,115)" d="M1145.56,1665.89l24.13,-0.04l71.79,128.21l-31.44,0.05l-46.94,-84.98l-5.37,-9.74c-17.27,31.55 -35.6,63.28 -53.25,94.69l-30.9,-0.08c23.08,-42.47 48.13,-86 71.98,-128.11z"/>
<path transform="translate(0,0)" fill="rgb(46,77,115)" d="M859.26,1665.91l27.974,-0.05c-0.459,33.12 0.028,67.32 0.076,100.53l109.923,0.11c-3.336,5.9 -7.403,12.23 -10.981,18.06l-5.855,9.54l-121.007,0.01c-1.088,-41.18 -0.157,-86.68 -0.13,-128.2z"/>
<path transform="translate(0,0)" fill="rgb(46,77,115)" d="M1535,1665.86l32.82,0.04c11.74,15.76 23.31,31.98 34.86,47.91l35.16,-47.89l32.34,-0.05l-34.46,46.63l-19.63,26.41l-0.05,55.12l-27.25,0.05l-0.1,-55.25c-17,-24.3 -35.94,-49.17 -53.69,-72.97z"/>
<path transform="translate(0,0)" fill="rgb(46,77,115)" d="M1714.14,1732.16l164.83,-0.08l0.02,-15.2l-164.9,0.02z"/>
<path transform="translate(0,0)" fill="rgb(46,77,115)" d="M176.011,1716.9l162.79,-0.01l0.044,15.19c-51.759,1.44 -110.632,0.09 -162.807,0.1z"/>
<path transform="translate(0,0)" fill="rgb(3,33,69)" d="M1450.46,1480.09c2.55,6.58 2.77,16.52 6.46,25.96c8.23,2.82 18.73,4.45 27.44,6.08c-10.7,0.86 -17.21,2.02 -27.33,5.49c-2.76,7.37 -4.35,16.59 -5.96,24.42c-2.31,-1.45 -2.71,-18.02 -7.32,-24.26c-6.85,-4.01 -17.63,-4.64 -25.8,-5.69c8.77,-1.58 17.78,-2.95 26.24,-5.66c3.06,-7.97 4.66,-17.86 6.27,-26.34z"/>
<path transform="translate(0,0)" fill="rgb(226,155,40)" d="M1157.4,1745.6c4.07,3.75 16.35,27.98 19.56,34.09l-19.38,0.2l-19.81,-0.27z"/>
<path transform="translate(0,0)" fill="rgb(226,155,40)" d="M690.427,1745.52c3.705,3.1 16.903,28.53 19.938,34.17l-18.659,0.11l-20.723,-0.11c6.605,-11 13.11,-22.95 19.444,-34.17z"/>
</svg>