<svg xmlns="http://www.w3.org/2000/svg" version="1.1" style="display: block; height: 100%; width: 100%;" viewBox="176.79359436035156 64.24905680241199 1696.256332397461 495.07959940787134">

<path transform="translate(0,0)" fill="rgb(1,29,64)" d="M914.412,139.591c-22.091,23.986 -20.877,65.606 3.5,87.616c21.545,19.452 48.449,16.07 75.179,16.012l69.699,-0.232c7.98,-0.059 26.07,-1.117 32.67,1.726c19.37,8.344 14.7,33.521 -8.75,33.926c-51.87,0.897 -105.39,-1.667 -157.135,-0.12l-30.688,43.644l193.083,0.079c11.6,-0.128 18.92,-0.869 29.92,-5.68c38.34,-16.77 44.22,-71.783 15.13,-99.894c-8.29,-7.848 -18.56,-13.276 -29.71,-15.692c-11.87,-2.591 -34.45,-1.721 -47.4,-1.685l-68.722,0.215c-7.016,0.03 -28.579,1.108 -33.777,-1.776c-20.494,-11.373 -13.064,-33.188 12.263,-33.458c49.306,-0.524 100.896,1.858 149.986,0.109l31.79,-44.038c-63.22,0.244 -127.34,-0.596 -190.367,0.125c-18.763,0.774 -33.371,4.683 -46.671,19.123z"/>
<path transform="translate(0,0)" fill="rgb(1,29,64)" d="M177.356,120.392l50.732,0.093c30.757,30.979 62.156,68.612 92.556,100.887c30.238,-34.036 60.93,-67.666 92.067,-100.882l49.542,0.122l0.197,201.533l-48.264,0.072l-0.055,-87.717l0.071,-47.157c-9.353,8.861 -22.948,25.057 -31.838,35.056l-61.594,69.986c-31.205,-32.668 -63.643,-71.203 -94.82,-105.008l0.008,134.764l-48.584,-0.003c-1.092,-65.766 -0.373,-135.856 -0.018,-201.746z"/>
<path transform="translate(0,0)" fill="rgb(1,29,64)" d="M676.166,120.479l184.341,-0.006c-9.23,13.715 -21.859,31.047 -31.766,44.068c-49.214,0.221 -98.428,0.141 -147.641,-0.238c-9.307,0.002 -20.26,0.641 -23.929,11.116c-10.033,28.638 28.614,24.256 45.225,24.167l66.821,-0.336c13.373,-0.051 34.727,-0.89 47.088,1.815c11.39,2.503 21.869,8.101 30.283,16.176c21.637,21.107 23.64,57.715 5.877,81.832c-13.353,18.128 -31.882,22.954 -53.215,23.149l-190.311,-0.056c5.735,-10.173 22.796,-33.102 30.177,-43.588c50.287,-1.589 102.404,0.71 152.841,0.104c10.723,-0.128 21.874,-1.37 24.053,-14.063c4.479,-26.083 -29.729,-21.676 -45.786,-21.628l-67.978,0.2c-27.39,0.076 -54.455,3.5 -76.133,-17.237c-23.849,-22.811 -23.945,-64.274 -1.047,-87.777c14.781,-15.172 31.167,-17.413 51.1,-17.698z"/>
<path transform="translate(0,0)" fill="rgb(1,29,64)" d="M1628.1,120.358l55.98,0.214c13.73,14.42 29.55,29.021 43.74,43.341l97.63,99.424c-0.18,-47.652 -0.1,-95.305 0.24,-142.956l47.33,-0.012l0.03,201.467c-6.41,1.67 -51.39,0.461 -59.85,0.454c-46.22,-45.979 -91.45,-94.506 -137.5,-140.827c-0.67,46.337 -0.04,94.269 -0.06,140.762l-47.68,0.032c-0.03,-66.96 -0.68,-135.029 0.14,-201.899z"/>
<path transform="translate(0,0)" fill="rgb(1,29,64)" d="M1400.78,120.486l58.23,-0.078c37.24,-0.128 66.25,-2.773 95.98,24.901c22.25,20.712 28.92,46.066 29.85,75.489c-16.21,-0.275 -33.14,-0.014 -49.4,-0.002c-0.55,-29.336 -11.02,-46.764 -40.99,-52.766l-61.71,-0.248c-43.99,-0.114 -71.65,-0.883 -75.68,52.897l-49.27,0.043c0.49,-56.173 35.7,-97.663 92.99,-100.236z"/>
<path transform="translate(0,0)" fill="rgb(1,29,64)" d="M1534.83,236.058l49.49,0.127c-1.56,15.038 -4.13,24.085 -10.32,37.764c-2.5,4.429 -4.68,8.11 -7.76,12.173c-14.29,19.252 -35.74,31.931 -59.5,35.175c-11.22,1.532 -39.07,1.236 -51.49,0.949c-20.82,-0.481 -57.94,1.889 -77.09,-2.352c-12.77,-2.857 -24.77,-8.445 -35.17,-16.381c-22.73,-17.344 -31.15,-40.011 -34.84,-67.275l49.4,-0.133c12.52,55.866 62.46,36.838 105.78,40.185c33.74,2.607 63.84,-0.933 71.5,-40.232z"/>
<path transform="translate(0,0)" fill="rgb(48,77,113)" d="M429.236,376.297c28.628,-1.699 72.444,-0.309 102.188,-0.254c-5.889,8.312 -12.154,18.416 -17.801,27.041l-50.238,-0.257c-9.631,-0.039 -21.765,-0.899 -31.188,0.934c-25.612,4.981 -19.32,24.662 -20.192,44.193c-0.657,14.732 4.851,24.405 20.06,27.304c23.376,1.795 48.094,0.78 71.75,0.757l-0.101,-23.002c-7.345,-0.013 -43.355,1.202 -46.252,-1.581l-0.023,-4.681c0.356,-7.28 -0.081,-12.686 -0.599,-19.925c24.488,-0.18 48.978,-0.198 73.467,-0.054c0.956,23.269 0.224,52.682 0.213,76.422l-67.228,0.042c-16.739,0.017 -36.185,1.538 -51.775,-4.999c-13.73,-5.756 -25.442,-22.26 -26.824,-37.127c-3.642,-39.17 -2.811,-76.978 44.543,-84.813z"/>
<path transform="translate(0,0)" fill="rgb(1,29,64)" d="M1206.09,322.165l47.59,0.117l0.01,-201.898l-47.51,-0.001z"/>
<path transform="translate(0,0)" fill="rgb(1,29,64)" d="M515.266,120.395l47.609,-0.005l-0.046,201.916c-15.711,-0.25 -31.865,-0.085 -47.613,-0.111c-0.761,-66.514 -0.103,-135.228 0.05,-201.8z"/>
<path transform="translate(0,0)" fill="rgb(48,77,113)" d="M1320.23,376.079c10.91,-0.209 22.56,-0.018 33.53,-0.022c11.67,14.36 23.56,28.533 35.67,42.516l35.93,-42.529l33.79,0.009c-17.85,20.436 -34.62,42.512 -52.8,62.524c15.77,20.785 36.28,42.104 52.09,62.961l-0.69,1.62c-10.27,-0.134 -21.11,0.137 -31.43,0.227l-36.9,-44.6l-36.56,44.408c-11,-0.124 -22.41,0.093 -33.45,0.151c14.68,-19.527 37.38,-45.373 53.37,-64.698c-16.88,-18.572 -36.61,-43.059 -52.55,-62.567z"/>
<path transform="translate(0,0)" fill="rgb(48,77,113)" d="M630.27,462.209c-5.642,10.074 -18.006,30.892 -22.427,40.952l30.386,0.059l52.594,-94.325l4.078,6.973c15.07,27.088 34.725,60.23 48.483,87.513l30.643,-0.178l-45.893,-82.131c-7.556,-13.474 -18.214,-31.477 -24.954,-45.012l-24.168,-0.067z"/>
<path transform="translate(0,0)" fill="rgb(48,77,113)" d="M1143.15,376.028l23.07,0.062c23.87,40.842 48.57,85.523 71.27,127.024l-30.59,0.133l-47.78,-85.892l-4.68,-7.752l-52.76,93.597l-30.38,-0.059c22.56,-41.96 48.19,-85.522 71.85,-127.113z"/>
<path transform="translate(0,0)" fill="rgb(48,77,113)" d="M859.001,376.016l27.027,-0.052l-0.015,100.074l109.36,-0.033l-11.213,18.267l-5.204,8.934l-119.908,-0.002z"/>
<path transform="translate(0,0)" fill="rgb(48,77,113)" d="M1529.81,376.018l31.99,-0.06l35.25,48.04c9.73,-14.686 24.59,-33.438 35.38,-47.919l32.24,0.001c-11.64,14.571 -23.71,31.502 -35.05,46.608c-6,8.664 -12.6,17.325 -18.91,25.806l0.07,54.652l-27.61,0.263l-0.12,-54.59c-13.11,-20.312 -38.23,-52.338 -53.24,-72.801z"/>
<path transform="translate(0,0)" fill="rgb(48,77,113)" d="M1826.45,426.504l45.45,0.03l0.01,15.044c-38.93,0.806 -80.7,0.022 -119.87,0.016l-43.57,0.072l-0.12,-14.937z"/>
<path transform="translate(0,0)" fill="rgb(48,77,113)" d="M193.539,426.488l146.576,0.179l0.022,15.033l-13.077,-0.175l-149.779,0.159l0.032,-15.109z"/>
<path transform="translate(0,0)" fill="rgb(1,29,64)" d="M1446.12,191.678c1.75,6.004 2.64,16.711 5.22,22.363c3.04,6.683 17.51,7.04 25.24,9.537c-25.97,4.41 -25.43,3.627 -29.87,30.283l-0.07,0.02c-0.97,-0.895 -4.86,-20.261 -6.54,-24.691c-7.07,-2.87 -17,-4.519 -24.69,-6.046c8.85,-1.463 16.02,-2.606 24.53,-5.541c3.01,-8.335 4.43,-17.204 6.18,-25.925z"/>
<path transform="translate(0,0)" fill="rgb(226,158,42)" d="M690.377,454.481c3.484,2.495 16.515,28.982 19.333,34.56l-19.96,0.063l-18.467,-0.023c6.481,-11.469 12.846,-23.002 19.094,-34.6z"/>
<path transform="translate(0,0)" fill="rgb(226,158,42)" d="M1154.39,454.672c2.97,2.589 16.51,28.989 19.27,34.298l-18.67,0.099l-19.64,-0.095c5.93,-11.461 12.68,-23.037 19.04,-34.302z"/>
</svg>